<svg width="50" height="50" viewBox="0 0 50 50" fill="none" xmlns="http://www.w3.org/2000/svg">
<g clip-path="url(#clip0_229_212)">
<mask id="mask0_229_212" style="mask-type:luminance" maskUnits="userSpaceOnUse" x="0" y="0" width="50" height="50">
<path d="M50 0H0V50H50V0Z" fill="white"/>
</mask>
<g mask="url(#mask0_229_212)">
<path d="M49.6693 32.8538L49.2393 17.678C49.198 16.2175 47.7254 14.9115 46.1573 14.9357C45.3971 14.9479 42.9185 15.3617 42.9368 20.1735L42.9682 28.4173C42.9692 28.6766 42.9393 28.9404 42.8804 29.2052C42.7867 29.07 42.6797 28.9415 42.5593 28.8212C42.0151 28.2769 41.2594 27.9768 40.4881 27.9927C39.7465 28.0097 39.0698 28.3131 38.5827 28.8471C37.1382 30.4307 35.4832 31.8669 34.1533 33.021C33.7407 33.379 33.3511 33.7171 33.0252 34.0109C31.5568 35.3345 31.3612 37.1671 31.3634 38.7854L31.3784 49.2196C31.379 49.6507 31.7286 49.9998 32.1596 49.9998L40.5733 49.9999C40.7805 49.9999 40.9793 49.9176 41.1258 49.7711C41.2722 49.6246 41.3546 49.4259 41.3546 49.2187V43.659L47.99 37.0235C49.1336 35.8801 49.7141 34.4382 49.6693 32.8538ZM40.0211 42.7829C39.8746 42.9294 39.7923 43.1281 39.7923 43.3354V48.4373L32.94 48.4372L32.9261 38.7831C32.9242 37.4452 33.0617 36.0817 34.0715 35.1716C34.3865 34.8876 34.7708 34.5542 35.1775 34.2012C36.5381 33.0205 38.2313 31.5511 39.7373 29.9001C39.9339 29.6846 40.2133 29.562 40.5241 29.5548C40.8716 29.547 41.2108 29.6821 41.4548 29.9261C41.9351 30.4065 41.9352 31.1881 41.455 31.6684L36.1623 36.9611C35.8571 37.2662 35.8572 37.7608 36.1623 38.0659C36.4674 38.371 36.962 38.371 37.2671 38.0659L42.5597 32.7732C43.8181 31.5149 44.5366 29.9251 44.5309 28.4112L44.4995 20.1674C44.4908 17.8866 45.12 16.5149 46.1826 16.4978C46.8884 16.4875 47.6604 17.1156 47.6776 17.7221L48.1076 32.8979C48.1404 34.0583 47.7293 35.0746 46.8854 35.9185L40.0211 42.7829ZM16.9766 34.0111C16.6507 33.7174 16.261 33.3792 15.8485 33.0212C14.5186 31.8672 12.8636 30.431 11.4191 28.8473C10.932 28.3133 10.2553 28.0099 9.51374 27.9929C8.74108 27.9736 7.98669 28.2772 7.44245 28.8214C7.32302 28.9408 7.21579 29.0693 7.12136 29.2053C7.06247 28.9406 7.03259 28.6768 7.03356 28.4176L7.06501 20.1737C7.08337 15.3619 4.60466 14.9481 3.8445 14.9358C2.27585 14.9118 0.803877 16.2177 0.762471 17.6782L0.332491 32.854C0.287666 34.4385 0.868233 35.8803 2.01159 37.0236L8.64704 43.6591V49.2187C8.64704 49.4259 8.72936 49.6246 8.87585 49.7711C9.02233 49.9176 9.22106 49.9999 9.42829 49.9999L17.842 49.9998C18.273 49.9998 18.6226 49.6507 18.6232 49.2197L18.6382 38.7854C18.6406 37.1673 18.445 35.3347 16.9766 34.0111ZM17.062 48.4374L10.2096 48.4375V43.3356C10.2096 43.1283 10.1273 42.9296 9.98083 42.7831L3.11647 35.9188C2.27263 35.0749 1.86149 34.0587 1.89431 32.8982L2.32429 17.7224C2.34128 17.1214 3.09626 16.498 3.80026 16.498C3.80661 16.498 3.81296 16.498 3.81931 16.4981C4.8819 16.5151 5.5111 17.8869 5.50241 20.1677L5.47097 28.4116C5.4653 29.9254 6.18376 31.5152 7.44216 32.7733L12.7348 38.0662C13.0399 38.3714 13.5345 38.3714 13.8396 38.0662C14.1447 37.7611 14.1448 37.2665 13.8396 36.9614L8.5486 31.6702C8.54802 31.6697 8.54753 31.6691 8.54694 31.6686C8.31589 31.4374 8.18864 31.1281 8.18864 30.7975C8.18864 30.4668 8.31599 30.1574 8.54724 29.9263C8.79108 29.6823 9.13063 29.5458 9.4778 29.555C9.78854 29.5621 10.0679 29.6848 10.2646 29.9003C11.7706 31.5513 13.4638 33.0207 14.8244 34.2014C15.2312 34.5544 15.6154 34.8878 15.9304 35.1718C16.9402 36.0819 17.0776 37.4454 17.0758 38.7832L17.062 48.4374ZM11.1521 15.8113C11.9619 15.9407 12.7735 15.7469 13.4374 15.2657C13.4376 15.2655 13.4379 15.2653 13.4382 15.2651L13.5844 15.1589V26.2159C13.5844 28.4512 15.4029 30.2696 17.6381 30.2696H32.3637C34.5989 30.2696 36.4174 28.4512 36.4174 26.2159V15.1589L36.5644 15.2657C37.094 15.6495 37.7175 15.8504 38.3591 15.8504C38.5219 15.8504 38.6858 15.8375 38.8497 15.8113C39.6594 15.682 40.3703 15.2452 40.8514 14.5813C41.3326 13.9173 41.5263 13.1057 41.397 12.296C41.2677 11.4863 40.8309 10.7754 40.1677 10.2948L26.8487 0.617975C25.7652 -0.199212 24.2998 -0.213079 23.1989 0.584772L9.83483 10.2943C9.17087 10.7755 8.73405 11.4864 8.60476 12.2961C8.47546 13.1058 8.66921 13.9175 9.15036 14.5814C9.63151 15.2452 10.3424 15.682 11.1521 15.8113ZM27.3917 28.7071H22.6102V18.5106C22.6102 18.0926 22.9503 17.7525 23.3683 17.7525H26.6337C27.0516 17.7525 27.3918 18.0926 27.3918 18.5106L27.3917 28.7071ZM34.855 26.2159C34.855 27.5896 33.7375 28.7071 32.3638 28.7071H28.9542V18.5106C28.9542 17.231 27.9132 16.19 26.6336 16.19H23.3682C22.0886 16.19 21.0476 17.2311 21.0476 18.5106V28.7071H17.638C16.2643 28.7071 15.1468 27.5896 15.1468 26.2159V14.0236L25.0009 6.86436L34.855 14.0237V26.2159ZM10.7525 11.5589L24.1166 1.84932C24.6495 1.46319 25.3876 1.47081 25.9114 1.86798C25.9156 1.8712 25.9199 1.87432 25.9243 1.87755L39.2503 11.5595C39.9233 12.0472 40.0741 12.9915 39.5864 13.6645C39.0987 14.3374 38.1544 14.4882 37.4822 14.0011L25.4601 5.26661C25.3232 5.1671 25.1621 5.11739 25.0009 5.11739C24.8398 5.11739 24.6787 5.1671 24.5418 5.26661L12.5198 14.0011C11.8468 14.4882 10.9031 14.3373 10.4156 13.6645C9.9279 12.9915 10.0787 12.0472 10.7525 11.5589Z" fill="black"/>
</g>
</g>
<defs>
<clipPath id="clip0_229_212">
<rect width="50" height="50" fill="white"/>
</clipPath>
</defs>
</svg>
