<svg width="53" height="52" viewBox="0 0 53 52" fill="none" xmlns="http://www.w3.org/2000/svg">
<mask id="mask0_239_363" style="mask-type:luminance" maskUnits="userSpaceOnUse" x="1" y="0" width="51" height="52">
<path d="M52 0.5H1V51.5H52V0.5Z" fill="white"/>
</mask>
<g mask="url(#mask0_239_363)">
<mask id="mask1_239_363" style="mask-type:luminance" maskUnits="userSpaceOnUse" x="1" y="1" width="51" height="51">
<path d="M51.7227 1.22363H1.72266V51.2236H51.7227V1.22363Z" fill="white"/>
</mask>
<g mask="url(#mask1_239_363)">
<path d="M26.6957 1.22607C25.7995 1.22607 24.9039 1.27425 24.0127 1.37029C23.1959 1.45372 22.3892 1.59055 21.5933 1.75657C21.4392 1.7888 21.2851 1.8228 21.1311 1.85836C16.4416 2.92605 12.1596 5.3237 8.79853 8.76381C8.48598 9.08418 8.18 9.41404 7.8808 9.75329C-1.19841 20.1766 -0.108819 35.9864 10.3145 45.0657C20.2935 53.7579 35.3145 53.1795 44.5956 43.7458C44.9088 43.4254 45.2146 43.0956 45.5133 42.7563C49.5201 38.1934 51.7282 32.3273 51.7246 26.2548C51.7246 12.4317 40.5188 1.22596 26.6957 1.22607ZM9.91064 10.0153C10.0425 9.87843 10.1793 9.74745 10.3136 9.61479C10.4688 9.46212 10.6231 9.30861 10.7816 9.16094C10.921 9.03079 11.0645 8.90564 11.2071 8.77883C11.3682 8.63617 11.5283 8.4935 11.6935 8.35584C11.8387 8.2332 11.988 8.11557 12.1365 7.9971C12.3034 7.86361 12.4703 7.73012 12.6421 7.60164C12.794 7.48734 12.9483 7.37638 13.1035 7.26792C13.2762 7.14445 13.4497 7.01763 13.6258 6.9025C13.7834 6.79571 13.9428 6.69226 14.103 6.58964C14.2815 6.47534 14.4609 6.36271 14.6419 6.25592C14.8049 6.15862 14.969 6.06289 15.1342 5.96893C15.3188 5.8638 15.5043 5.76119 15.6906 5.66107C15.8575 5.57211 16.0243 5.48503 16.1912 5.39994C16.3814 5.30399 16.5733 5.21139 16.766 5.12045C16.9329 5.04119 17.1064 4.96193 17.2783 4.88685C17.4744 4.80342 17.6729 4.71999 17.8715 4.63656C18.0442 4.56564 18.216 4.4964 18.3904 4.42965C18.5923 4.3529 18.7967 4.28115 19.0011 4.2094C19.1755 4.1485 19.3498 4.08759 19.5267 4.03003C19.7345 3.96328 19.9439 3.90154 20.1541 3.84064C20.3301 3.78975 20.5045 3.73719 20.6814 3.68963C20.749 3.67211 20.8165 3.65793 20.8841 3.64041C18.4146 6.03828 16.582 9.0142 15.5521 12.2987C13.5719 11.7765 11.6549 11.0387 9.83555 10.0987C9.86309 10.0695 9.88645 10.0403 9.91064 10.0153ZM8.71092 11.3585C10.715 12.4443 12.8402 13.2901 15.0424 13.8781C13.9628 17.632 13.3961 21.5147 13.3579 25.4205H3.35475C3.53653 20.2699 5.42005 15.3248 8.71092 11.3585ZM8.71092 41.1511C5.42026 37.1847 3.53673 32.2396 3.35475 27.0891H13.3579C13.3961 30.995 13.9627 34.8777 15.0424 38.6316C12.8403 39.2198 10.7151 40.0654 8.71092 41.1511ZM20.6764 48.8233C20.5078 48.7808 20.3335 48.7257 20.1599 48.6748C19.9489 48.6131 19.737 48.5513 19.5284 48.4838C19.3524 48.427 19.1788 48.3661 19.0053 48.3052C18.8 48.2343 18.5948 48.1617 18.3921 48.0841C18.2185 48.0182 18.0475 47.949 17.8757 47.8789C17.6763 47.7955 17.4769 47.712 17.2791 47.6286C17.1089 47.5535 16.9396 47.4762 16.771 47.3967C16.5767 47.3049 16.3831 47.2115 16.187 47.1147C16.0202 47.0313 15.8533 46.9478 15.6865 46.8569C15.4979 46.7559 15.311 46.6525 15.1241 46.5457C14.9573 46.4531 14.7988 46.358 14.6378 46.2612C14.4542 46.1511 14.274 46.0376 14.0938 45.9216C13.9353 45.8207 13.7768 45.7181 13.6207 45.613C13.443 45.4928 13.267 45.3677 13.0926 45.2425C12.94 45.1332 12.7873 45.0239 12.6371 44.9088C12.4644 44.7787 12.2951 44.6443 12.1265 44.5092C11.9789 44.3915 11.832 44.2747 11.6877 44.1538C11.5208 44.0153 11.3598 43.8709 11.198 43.7274C11.0561 43.6015 10.9135 43.4772 10.775 43.3487C10.6156 43.2002 10.4613 43.0458 10.3061 42.8932C10.1718 42.7605 10.0349 42.6295 9.90313 42.4935C9.87894 42.4677 9.85558 42.441 9.83138 42.4159C11.6507 41.4755 13.5677 40.7374 15.548 40.2151C16.578 43.4995 18.4105 46.4753 20.8799 48.8734C20.8124 48.8559 20.744 48.8417 20.6764 48.8233ZM25.8615 49.5492C22.2916 49.0419 19.1621 45.3159 17.1932 39.8138C20.0398 39.1764 22.9447 38.8344 25.8615 38.7934V49.5492ZM25.8615 37.1248C22.7673 37.1655 19.6862 37.533 16.6693 38.2211C15.6217 34.6016 15.0691 30.8569 15.0265 27.0891H25.8615V37.1248ZM25.8615 25.4205H15.0265C15.069 21.6527 15.6216 17.908 16.6693 14.2885C19.6862 14.9765 22.7674 15.344 25.8615 15.3848V25.4205ZM25.8615 13.7162C22.9446 13.6755 20.0398 13.3336 17.1932 12.6959C19.1621 7.19367 22.2916 3.46771 25.8615 2.96046V13.7162ZM44.6807 11.3585C47.9714 15.3249 49.8549 20.27 50.0369 25.4205H40.0337C39.9955 21.5147 39.4289 17.632 38.3492 13.8781C40.5514 13.2898 42.6765 12.4441 44.6807 11.3585ZM32.7086 3.68546C32.8838 3.72885 33.0581 3.78391 33.2317 3.8348C33.4428 3.89654 33.6547 3.95828 33.8632 4.02585C34.0393 4.08259 34.2128 4.14349 34.3863 4.20439C34.5916 4.27531 34.7968 4.34789 34.9995 4.42548C35.1731 4.49139 35.3441 4.56064 35.516 4.63072C35.7154 4.71415 35.9148 4.79758 36.1125 4.88101C36.2827 4.95609 36.4521 5.03337 36.6206 5.11294C36.815 5.20471 37.0085 5.29815 37.2046 5.39493C37.3714 5.47836 37.5383 5.56179 37.7052 5.65273C37.8937 5.75368 38.0806 5.85713 38.2675 5.96392C38.4343 6.05653 38.5929 6.15164 38.7539 6.24841C38.9374 6.35854 39.1176 6.47201 39.2978 6.58797C39.4563 6.68892 39.6149 6.79154 39.7709 6.89666C39.9486 7.0168 40.1238 7.14111 40.2982 7.26625C40.4517 7.37555 40.6043 7.48567 40.7553 7.59997C40.9272 7.72929 41.0957 7.86361 41.2651 7.99876C41.4119 8.11556 41.5596 8.23237 41.7039 8.35417C41.8708 8.49267 42.0318 8.637 42.1937 8.7805C42.3355 8.90648 42.4782 9.03079 42.6167 9.15927C42.776 9.30777 42.9304 9.46212 43.0855 9.61479C43.2199 9.74745 43.3567 9.87843 43.4885 10.0144C43.5127 10.0403 43.536 10.067 43.5602 10.092C41.741 11.0325 39.824 11.7705 37.8437 12.2929C36.8116 9.00805 34.9767 6.03244 32.505 3.6354C32.5726 3.65292 32.641 3.66711 32.7086 3.68546ZM27.5301 2.96046C31.1001 3.46771 34.2295 7.19367 36.1984 12.6959C33.3518 13.3333 30.4469 13.6752 27.5301 13.7162V2.96046ZM27.5301 15.3848C30.6243 15.3441 33.7055 14.9766 36.7224 14.2885C37.7699 17.908 38.3225 21.6527 38.3651 25.4205H27.5301V15.3848ZM27.5301 27.0891H38.3651C38.3226 30.8569 37.77 34.6016 36.7224 38.2211C33.7055 37.5331 30.6243 37.1656 27.5301 37.1248V27.0891ZM27.5301 49.5492V38.7934C30.447 38.8341 33.3518 39.1761 36.1984 39.8138C34.2295 45.3159 31.1001 49.0419 27.5301 49.5492ZM43.481 42.4944C43.3492 42.6303 43.2132 42.7613 43.0789 42.894C42.9237 43.0467 42.7685 43.201 42.6091 43.3495C42.4707 43.4788 42.328 43.5998 42.1862 43.7291C42.0243 43.8726 41.8633 44.0161 41.6981 44.1546C41.5521 44.2764 41.4036 44.394 41.2551 44.5125C41.0882 44.646 40.9214 44.7795 40.7495 44.908C40.5977 45.0223 40.4433 45.1332 40.2881 45.2417C40.1154 45.3652 39.9419 45.492 39.7659 45.6071C39.6082 45.7139 39.4488 45.8174 39.2887 45.9191C39.1101 46.0343 38.9302 46.1455 38.7489 46.2529C38.582 46.3505 38.4227 46.4456 38.2583 46.5399C38.0736 46.645 37.8879 46.7476 37.701 46.8477C37.5341 46.9367 37.3673 47.0237 37.2004 47.1088C37.0102 47.2048 36.8183 47.2974 36.6256 47.3883C36.4587 47.4676 36.2852 47.5468 36.1133 47.6219C35.9173 47.7054 35.7187 47.7888 35.5201 47.8722C35.3474 47.9423 35.1756 48.0124 35.0021 48.0783C34.7985 48.1559 34.5941 48.2285 34.3888 48.2994C34.2153 48.3603 34.0418 48.4212 33.8657 48.4779C33.6572 48.5455 33.4486 48.6072 33.2358 48.6681C33.0615 48.7199 32.8863 48.7716 32.7102 48.8191C32.6427 48.8367 32.5751 48.8508 32.5075 48.8684C34.977 46.4705 36.8097 43.4946 37.8395 40.2101C39.8197 40.7323 41.7367 41.4701 43.5561 42.4101C43.5285 42.4401 43.5052 42.4693 43.481 42.4944ZM44.6807 41.1511C42.6766 40.0653 40.5515 39.2195 38.3492 38.6316C39.4288 34.8777 39.9955 30.995 40.0337 27.0891H50.0369C49.8552 32.2396 47.9716 37.1848 44.6807 41.1511Z" fill="white"/>
</g>
</g>
</svg>
