<svg width="60" height="60" viewBox="0 0 60 60" fill="none" xmlns="http://www.w3.org/2000/svg">
<path d="M24.5284 33.2846C24.5132 33.2846 24.5018 33.2846 24.4866 33.2846L17.8942 32.9884C17.3929 32.9656 17.0018 32.5403 17.0246 32.0352C17.0474 31.534 17.4727 31.1428 17.9777 31.1656L24.5701 31.4618C25.0714 31.4846 25.4625 31.9099 25.4398 32.415C25.4132 32.9049 25.0106 33.2846 24.5284 33.2846Z" fill="black"/>
<path d="M9.6656 46.8799C9.50231 46.8799 9.33902 46.8382 9.19092 46.747L2.7694 42.8318C2.34408 42.5736 2.20358 42.0154 2.4618 41.5863L11.7618 25.9559C11.8871 25.747 12.0884 25.5951 12.3238 25.5382C12.5593 25.4812 12.8099 25.5192 13.0188 25.6445L19.4441 29.5597C19.8732 29.8217 20.0099 30.3837 19.7479 30.8129C19.4859 31.242 18.9238 31.3787 18.4947 31.1167L12.8593 27.6799L4.48965 41.742L10.1403 45.1901C10.5694 45.4521 10.7061 46.0141 10.4441 46.4432C10.2732 46.7242 9.9732 46.8799 9.6656 46.8799Z" fill="black"/>
<path d="M9.6656 46.8797C9.50611 46.8797 9.34661 46.838 9.19851 46.7506C8.7656 46.4924 8.62509 45.9342 8.87953 45.5013L18.1795 29.8709C18.4378 29.438 18.996 29.2975 19.4289 29.5557C19.8618 29.8139 20.0023 30.3721 19.7441 30.8051L10.4441 46.4354C10.2808 46.7202 9.97699 46.8797 9.6656 46.8797Z" fill="black"/>
<path d="M13.9259 48.1558C13.6867 48.1558 13.4474 48.0609 13.2689 47.8748L10.1778 44.6394C9.82843 44.2748 9.84361 43.6976 10.2082 43.352C10.5727 43.0027 11.1499 43.0179 11.4955 43.3824L14.5867 46.6179C14.936 46.9824 14.9208 47.5596 14.5563 47.9052C14.3778 48.0723 14.1499 48.1558 13.9259 48.1558Z" fill="black"/>
<path d="M40.0603 54.1711C39.5439 54.1711 39.0312 54.0496 38.5717 53.8141C38.4084 53.7306 38.2489 53.6318 38.1008 53.5179L32.8717 49.5875C32.4692 49.2837 32.3894 48.7141 32.6894 48.3116C32.9932 47.909 33.5628 47.8293 33.9654 48.1293L39.1945 52.0597C39.259 52.1091 39.3274 52.1508 39.4033 52.1888C39.9995 52.4964 40.7363 52.3407 41.1616 51.8204C41.3742 51.5622 41.4844 51.247 41.4844 50.9166C41.4844 50.8179 41.473 50.723 41.454 50.628C41.3514 50.1344 41.6666 49.6521 42.1603 49.5496C42.654 49.447 43.1363 49.7622 43.2388 50.2559C43.2844 50.4723 43.3071 50.6926 43.3071 50.9166C43.3071 51.6647 43.0451 52.3977 42.5704 52.9787C42.0958 53.5559 41.435 53.9584 40.7021 54.1065C40.4932 54.1521 40.2768 54.1711 40.0603 54.1711Z" fill="black"/>
<path d="M36.7796 57.1329C36.1872 57.1329 35.5872 56.9734 35.0517 56.6354C34.953 56.5746 34.8581 56.5063 34.7669 56.4379L30.8479 53.3848C30.4492 53.0772 30.3809 52.5038 30.6885 52.105C30.996 51.7063 31.5695 51.6379 31.9682 51.9455L35.891 54.9987C35.9328 55.0291 35.9745 55.0595 36.0163 55.086C36.6467 55.481 37.4707 55.3329 37.9302 54.7481C38.1315 54.4898 38.2416 54.1784 38.2416 53.8519C38.2416 53.6734 38.2074 53.4949 38.1467 53.3278C37.9682 52.8569 38.2036 52.3291 38.6707 52.1506C39.1416 51.9721 39.6695 52.2076 39.8479 52.6746C39.9923 53.0506 40.0644 53.4455 40.0644 53.8481C40.0644 54.5848 39.8214 55.2835 39.3657 55.8683C38.7163 56.6962 37.7555 57.1329 36.7796 57.1329Z" fill="black"/>
<path d="M33.3467 59.1646C32.7429 59.1646 32.1505 58.9899 31.6378 58.652L27.7378 56.0773C27.3163 55.8001 27.2024 55.2342 27.4796 54.8127C27.7568 54.3912 28.3226 54.2773 28.7442 54.5545L32.6442 57.1292C33.1986 57.4975 33.9353 57.3798 34.3492 56.8596C34.5315 56.6317 34.6302 56.3545 34.6302 56.0621C34.6302 56.0241 34.6302 55.9861 34.6264 55.9482C34.5771 55.4469 34.9454 55.0026 35.4467 54.9532C35.948 54.9077 36.3923 55.2722 36.4416 55.7735C36.4492 55.8684 36.4568 55.9634 36.4568 56.0583C36.4568 56.7608 36.2138 57.4482 35.7771 57.995C35.291 58.6026 34.6037 59.0013 33.8366 59.1229C33.6695 59.1532 33.5062 59.1646 33.3467 59.1646Z" fill="black"/>
<path d="M25.1594 58.5533C24.4606 58.5533 23.7619 58.2875 23.2303 57.7559C22.167 56.6926 22.167 54.9609 23.2303 53.8977L25.0682 52.0597C26.1315 50.9964 27.8632 50.9964 28.9265 52.0597C29.9898 53.123 29.9898 54.8546 28.9265 55.9179L27.0885 57.7559C26.5568 58.2875 25.8581 58.5533 25.1594 58.5533ZM26.9974 53.085C26.7657 53.085 26.5341 53.1723 26.3594 53.3508L24.5214 55.1888C24.1682 55.542 24.1682 56.1154 24.5214 56.4685C24.8746 56.8217 25.448 56.8217 25.8012 56.4685L27.6391 54.6306C27.9923 54.2774 27.9923 53.704 27.6391 53.3508C27.4606 53.1723 27.229 53.085 26.9974 53.085Z" fill="black"/>
<path d="M21.7907 56.6809C20.9932 56.6809 20.2451 56.3695 19.6793 55.8075C19.1172 55.2455 18.8058 54.4936 18.8058 53.6961C18.8058 52.8986 19.1172 52.1505 19.6793 51.5847L22.1172 49.1467C22.6793 48.5847 23.4312 48.2733 24.2286 48.2733C25.0261 48.2733 25.7742 48.5847 26.34 49.1467C26.902 49.7088 27.2134 50.4607 27.2134 51.2581C27.2134 52.0556 26.902 52.8037 26.34 53.3695L23.9021 55.8075C23.3362 56.3695 22.5881 56.6809 21.7907 56.6809ZM24.2286 50.0961C23.9172 50.0961 23.6248 50.2176 23.4084 50.4379L20.9704 52.8758C20.7502 53.0961 20.6286 53.3885 20.6286 53.6961C20.6286 54.0037 20.7502 54.2999 20.9704 54.5164C21.1907 54.7366 21.4831 54.8581 21.7907 54.8581C22.0983 54.8581 22.3945 54.7366 22.6109 54.5164L25.0489 52.0784C25.2691 51.8581 25.3907 51.5657 25.3907 51.2581C25.3907 50.9505 25.2691 50.6543 25.0489 50.4379C24.8324 50.2176 24.54 50.0961 24.2286 50.0961Z" fill="black"/>
<path d="M18.4531 54.1595C17.6594 54.1595 16.9113 53.8519 16.3493 53.2899C15.1911 52.1316 15.1911 50.2443 16.3493 49.0823L19.5582 45.8734C20.1202 45.3114 20.8683 45.0038 21.662 45.0038C22.4557 45.0038 23.2038 45.3114 23.7658 45.8734C24.3278 46.4354 24.6354 47.1835 24.6354 47.9772C24.6354 48.7709 24.3278 49.519 23.7658 50.081L20.5569 53.2899C19.9911 53.8519 19.2468 54.1595 18.4531 54.1595ZM17.6367 52.0025C17.8531 52.219 18.1417 52.3405 18.4493 52.3405C18.7569 52.3405 19.0455 52.219 19.262 52.0025L22.4708 48.7937C22.6873 48.5772 22.8088 48.2886 22.8088 47.981C22.8088 47.6734 22.6873 47.3848 22.4708 47.1683C22.0227 46.7202 21.2898 46.7202 20.8417 47.1683L17.6329 50.3772C17.1886 50.8215 17.1886 51.5506 17.6367 52.0025Z" fill="black"/>
<path d="M15.6582 51.1595C14.9214 51.1595 14.1847 50.8785 13.6265 50.3203C12.5063 49.2 12.5063 47.3773 13.6265 46.257L15.4265 44.457C16.5468 43.3368 18.3695 43.3368 19.4898 44.457C20.6101 45.5773 20.6101 47.4 19.4898 48.5203L17.6898 50.3203C17.1316 50.8785 16.3949 51.1595 15.6582 51.1595ZM17.4582 45.433C17.1771 45.433 16.9151 45.5431 16.7138 45.7406L14.9138 47.5406C14.5037 47.9507 14.5037 48.6152 14.9138 49.0254C15.324 49.4355 15.9885 49.4355 16.3987 49.0254L18.1987 47.2254C18.6088 46.8152 18.6088 46.1507 18.1987 45.7406C18.005 45.5431 17.7392 45.433 17.4582 45.433Z" fill="black"/>
<path d="M43.106 45.8811C42.7756 45.8811 42.4567 45.7027 42.2972 45.3913C42.0655 44.9432 42.2402 44.3925 42.6845 44.1609L49.2427 40.7583C49.6908 40.5267 50.2415 40.7014 50.4731 41.1457C50.7048 41.5938 50.5301 42.1444 50.0858 42.3761L43.5275 45.7786C43.3908 45.847 43.2503 45.8811 43.106 45.8811Z" fill="black"/>
<path d="M50.5375 43.7773C50.2451 43.7773 49.9565 43.6368 49.7818 43.3748L40.7476 30.0115C40.6071 29.8026 40.5577 29.5482 40.6109 29.3051C40.6641 29.0621 40.816 28.8494 41.0324 28.7203L47.2527 24.9836C47.6666 24.733 48.2058 24.8545 48.4755 25.2532L57.5096 38.6165C57.6501 38.8254 57.6995 39.0798 57.6463 39.3229C57.5932 39.5659 57.4413 39.7786 57.2248 39.9077L51.0046 43.6444C50.8603 43.7355 50.697 43.7773 50.5375 43.7773ZM42.7944 29.7874L50.8071 41.6393L55.4628 38.8406L47.4501 26.9887L42.7944 29.7874Z" fill="black"/>
<path d="M43.5921 51.6911C42.9959 51.6911 42.4111 51.5354 41.8985 51.2354C41.7997 51.1785 41.7048 51.1177 41.6137 51.0493L33.882 45.4785C33.4719 45.1823 33.3808 44.6164 33.677 44.2063C33.9694 43.7962 34.539 43.705 34.9491 44.0012L42.6808 49.5721C42.7263 49.6025 42.7719 49.6329 42.8175 49.6595C43.0529 49.7962 43.3225 49.8683 43.5997 49.8683C44.0972 49.8683 44.5529 49.6405 44.8529 49.2493C45.1187 48.9 45.2251 48.4747 45.1529 48.0417C45.0808 47.6126 44.8453 47.2405 44.4808 46.9936L28.1478 35.962L25.1175 39.1671C25.0985 39.1861 25.0833 39.205 25.0643 39.2202C23.0706 41.005 21.32 41.119 20.1997 40.8987C18.9656 40.6595 18.2289 39.9721 18.1491 39.8962C17.8035 39.5658 17.777 39.0228 18.0808 38.6544L24.8516 30.5658C25.482 29.8139 26.4048 29.3468 27.3808 29.2898C29.1314 29.1873 31.3871 29.3582 32.9744 29.5177C33.882 29.6088 34.8086 29.7417 35.7997 29.9202C39.4605 30.5734 42.6162 30.4253 42.6504 30.4215C43.1554 30.3987 43.5808 30.7823 43.6073 31.2835C43.6339 31.7848 43.2466 32.2139 42.7453 32.2405C42.6086 32.2481 39.358 32.4038 35.4808 31.7126C34.5314 31.5417 33.6504 31.4164 32.7921 31.3291C31.2732 31.1734 29.12 31.0101 27.4909 31.1088C27.0124 31.1354 26.5605 31.3671 26.2491 31.7354L20.1656 39C20.3023 39.0493 20.458 39.0911 20.6251 39.1215C21.6314 39.2886 22.7061 38.8709 23.8187 37.8835L27.3504 34.1468C27.658 33.824 28.1516 33.7671 28.5238 34.0177L45.4909 45.4823C46.2618 46.0025 46.7896 46.8266 46.9415 47.7455C47.0934 48.6645 46.858 49.6139 46.2921 50.3544C45.6466 51.2012 44.663 51.6911 43.5921 51.6911Z" fill="black"/>
<path d="M42.0999 12.752C41.8948 12.752 41.6859 12.6836 41.515 12.5393L38.6062 10.1127L30.0011 2.93552L20.8112 10.6026L18.4872 12.5393C18.0999 12.8621 17.5264 12.8089 17.2037 12.4216C16.8809 12.0343 16.934 11.4608 17.3214 11.138L20.2302 8.71147L29.4201 1.04438C29.7581 0.763365 30.248 0.763365 30.5897 1.04438L40.3644 9.20134L42.6885 11.138C43.0758 11.4608 43.1252 12.0343 42.8062 12.4216C42.6201 12.6418 42.3581 12.752 42.0999 12.752Z" fill="black"/>
<path d="M39.1909 24.1445H32.9517C32.4466 24.1445 32.0403 23.7381 32.0403 23.2331V15.509H27.9618V23.2331C27.9618 23.7381 27.5555 24.1445 27.0504 24.1445H20.8112C20.3061 24.1445 19.8998 23.7381 19.8998 23.2331V9.41408C19.8998 8.90901 20.3061 8.50269 20.8112 8.50269C21.3162 8.50269 21.7226 8.90901 21.7226 9.41408V22.3217H26.1352V14.5976C26.1352 14.0926 26.5416 13.6862 27.0466 13.6862H32.9479C33.4529 13.6862 33.8593 14.0926 33.8593 14.5976V22.3217H38.2795V9.41408C38.2795 8.90901 38.6859 8.50269 39.1909 8.50269C39.696 8.50269 40.1023 8.90901 40.1023 9.41408V23.2331C40.1023 23.7343 39.6922 24.1445 39.1909 24.1445Z" fill="black"/>
</svg>
