<svg width="52" height="51" viewBox="0 0 52 51" fill="none" xmlns="http://www.w3.org/2000/svg">
<mask id="mask0_239_349" style="mask-type:luminance" maskUnits="userSpaceOnUse" x="1" y="0" width="50" height="51">
<path d="M51 0.5H1V50.5H51V0.5Z" fill="white"/>
</mask>
<g mask="url(#mask0_239_349)">
<mask id="mask1_239_349" style="mask-type:luminance" maskUnits="userSpaceOnUse" x="1" y="0" width="50" height="51">
<path d="M51 0.5H1V50.5H51V0.5Z" fill="white"/>
</mask>
<g mask="url(#mask1_239_349)">
<path d="M23.9445 14.5464C26.5695 16.3048 30.242 16.2131 33.292 15.3439C33.7967 16.6403 34.1328 17.9961 34.292 19.3781L34.3204 21.3331H22.6654C22.1859 21.3332 21.7297 21.5397 21.4133 21.9C21.0969 22.2603 20.951 22.7393 21.0129 23.2148L21.7712 29.0481C21.878 29.8697 22.572 30.488 23.4004 30.4998L25.7962 49.0489C25.9064 49.8783 26.6129 50.4983 27.4495 50.4998H42.8812C43.7186 50.4981 44.4255 49.8768 44.5345 49.0464L46.9304 30.4998C47.7579 30.4882 48.4516 29.8712 48.5595 29.0506C49.4087 22.5181 49.3179 23.3006 49.3179 23.2173C49.3805 22.7414 49.235 22.2617 48.9185 21.9008C48.602 21.54 48.1453 21.3331 47.6654 21.3331H35.9987L36.0387 19.3814C36.1904 17.9973 36.5268 16.6397 37.0387 15.3448C40.087 16.2164 43.7612 16.3048 46.3854 14.5464C50.3854 11.8689 50.9687 5.70307 50.9945 5.4414C50.9957 5.39086 50.9918 5.34033 50.9829 5.29057C50.9782 5.15511 50.9354 5.0237 50.8595 4.91141V4.90474C50.8512 4.89224 50.8379 4.88641 50.8295 4.87474C50.7594 4.7742 50.664 4.69399 50.5529 4.64224C50.5196 4.61989 50.4844 4.60038 50.4479 4.58391C50.2079 4.50057 44.5145 2.50474 40.4979 5.1939C36.8862 7.61057 36.0604 12.8606 35.9145 14.0523C35.5721 14.5216 35.3179 15.0494 35.1645 15.6098C35.0101 15.0475 34.7561 14.5174 34.4145 14.0448C34.2687 12.8431 33.4387 7.60807 29.8312 5.1939C25.8187 2.50557 20.1254 4.49974 19.8845 4.58307C19.848 4.59968 19.8129 4.61918 19.7795 4.6414C19.6686 4.69345 19.5732 4.7736 19.5029 4.87391C19.4945 4.88557 19.4812 4.8914 19.4729 4.9039C19.3959 5.01832 19.3523 5.15193 19.347 5.28974C19.3369 5.33966 19.3319 5.39047 19.332 5.4414C19.3587 5.70307 19.9454 11.8689 23.9445 14.5464ZM21.332 7.15057L31.607 14.0306C25.947 15.1114 22.7037 12.8639 21.332 7.15057ZM42.8812 48.8331H27.4495L25.082 30.4998H45.2487L42.8812 48.8331ZM46.907 28.8331H23.4237L22.6654 22.9998H47.6654L46.907 28.8331ZM38.7295 14.0281L49.0037 7.1489C47.6304 12.8873 44.3704 15.0998 38.7295 14.0281ZM48.1529 5.71307L37.882 12.5898C39.2487 6.91641 42.4487 4.63057 48.1529 5.71307ZM28.9079 6.58307C31.0179 7.99974 32.0062 10.7498 32.4504 12.5948L22.1745 5.71057C23.9645 5.36807 26.7912 5.16641 28.9079 6.58307Z" fill="white"/>
<path d="M26.832 24.6665H25.1654C24.7051 24.6665 24.332 25.0396 24.332 25.4999C24.332 25.9601 24.7051 26.3332 25.1654 26.3332H26.832C27.2923 26.3332 27.6654 25.9601 27.6654 25.4999C27.6654 25.0396 27.2923 24.6665 26.832 24.6665Z" fill="white"/>
<path d="M30.1654 24.6665C29.7051 24.6665 29.332 25.0396 29.332 25.4999C29.332 25.9601 29.7051 26.3332 30.1654 26.3332H35.9987C36.4589 26.3332 36.832 25.9601 36.832 25.4999C36.832 25.0396 36.4589 24.6665 35.9987 24.6665H30.1654Z" fill="white"/>
<path d="M10.1667 50.5C15.09 50.5 19.3333 37.565 19.3333 31.2142C19.3333 25.345 16.0083 23.6175 12.6667 23.1567V19.645C13.7121 18.8647 14.3295 17.6379 14.3333 16.3333V4.66667C14.3333 2.36548 12.4679 0.5 10.1667 0.5C7.86548 0.5 6 2.36548 6 4.66667V16.3333C6.0038 17.6379 6.62119 18.8647 7.66667 19.645V23.1567C4.325 23.6175 1 25.345 1 31.2142C1 37.565 5.24333 50.5 10.1667 50.5ZM11.6725 24.7308C11.235 28.7783 10.5833 30.7733 10.1667 31.2625C9.75 30.7733 9.09833 28.7783 8.66083 24.7308C9.66289 24.645 10.6704 24.645 11.6725 24.7308ZM7.66667 4.66667C7.66667 3.28595 8.78596 2.16667 10.1667 2.16667C11.5474 2.16667 12.6667 3.28595 12.6667 4.66667V16.3333C12.6667 17.714 11.5474 18.8333 10.1667 18.8333C8.78596 18.8333 7.66667 17.714 7.66667 16.3333V4.66667ZM9.33333 20.4167C9.88324 20.5288 10.4501 20.5288 11 20.4167V23.0167C10.4242 22.9958 9.92417 22.995 9.33333 23.0167V20.4167ZM7.01083 24.9783C7.8775 33 9.4725 33 10.1667 33C10.8608 33 12.4558 33 13.3225 24.9783C16.3642 25.6808 17.6667 27.6242 17.6667 31.2142C17.6667 37.5933 13.3333 48.8333 10.1667 48.8333C7 48.8333 2.66667 37.5933 2.66667 31.2142C2.66667 27.6242 3.96917 25.6808 7.01083 24.9783Z" fill="white"/>
<path d="M10.1654 5.49968C10.6256 5.49968 10.9987 5.12658 10.9987 4.66635C10.9987 4.20611 10.6256 3.83301 10.1654 3.83301C9.70513 3.83301 9.33203 4.20611 9.33203 4.66635C9.33203 5.12658 9.70513 5.49968 10.1654 5.49968Z" fill="white"/>
</g>
</g>
</svg>
