<svg width="50" height="50" viewBox="0 0 50 50" fill="none" xmlns="http://www.w3.org/2000/svg">
<g clip-path="url(#clip0_229_199)">
<mask id="mask0_229_199" style="mask-type:luminance" maskUnits="userSpaceOnUse" x="0" y="0" width="50" height="50">
<path d="M50 0H0V50H50V0Z" fill="white"/>
</mask>
<g mask="url(#mask0_229_199)">
<path d="M10.1152 44.7058C10.1538 44.7058 10.1925 44.7028 10.2312 44.6965C10.4632 44.6593 10.6633 44.5131 10.7691 44.3034L15.8278 34.2814C16.01 33.9202 15.8651 33.4798 15.5041 33.2975C15.143 33.1151 14.7024 33.2602 14.5202 33.6213L9.91755 42.7397L6.33826 39.1603C6.05222 38.8742 5.58855 38.8742 5.30242 39.1603C5.01638 39.4463 5.01638 39.9101 5.30242 40.196L9.59744 44.4911C9.73572 44.6297 9.92244 44.7058 10.1152 44.7058Z" fill="black"/>
<path d="M43.0002 21.2173H23.2559C22.8513 21.2173 22.5234 21.5452 22.5234 21.9497C22.5234 22.3542 22.8513 22.6821 23.2559 22.6821H43.0002C43.4048 22.6821 43.7326 22.3542 43.7326 21.9497C43.7326 21.5452 43.4048 21.2173 43.0002 21.2173Z" fill="black"/>
<path d="M43.001 25.792H40.1191C39.7146 25.792 39.3867 26.1199 39.3867 26.5244C39.3867 26.9289 39.7146 27.2568 40.1191 27.2568H43.001C43.4056 27.2568 43.7334 26.9289 43.7334 26.5244C43.7334 26.1199 43.4056 25.792 43.001 25.792Z" fill="black"/>
<path d="M37.1885 25.792H18.1562C17.7517 25.792 17.4238 26.1199 17.4238 26.5244C17.4238 26.9289 17.7517 27.2568 18.1562 27.2568H37.1885C37.5931 27.2568 37.9209 26.9289 37.9209 26.5244C37.9209 26.1199 37.5931 25.792 37.1885 25.792Z" fill="black"/>
<path d="M20.1399 13.8169C20.5173 13.9609 20.941 13.7712 21.0851 13.3932L21.4875 12.3364H24.2319L24.63 13.391C24.7406 13.6844 25.0193 13.865 25.3153 13.865C25.4013 13.865 25.4887 13.8498 25.5738 13.8177C25.9522 13.6748 26.1433 13.2522 26.0004 12.8738L23.6842 6.73652C23.6817 6.72978 23.679 6.72314 23.6764 6.7165C23.541 6.3876 23.224 6.17529 22.8686 6.17529C22.8689 6.17529 22.8684 6.17529 22.8686 6.17529C22.5126 6.17558 22.1948 6.38867 22.0601 6.71806C22.0578 6.72363 22.0556 6.7292 22.0535 6.73476L19.7161 12.8718C19.5722 13.2498 19.7619 13.6729 20.1399 13.8169ZM22.866 8.71709L23.6791 10.8716H22.0454L22.866 8.71709Z" fill="black"/>
<path d="M26.9551 13.7314C27.0833 13.8218 27.2305 13.8651 27.3763 13.8651C27.6065 13.8651 27.8332 13.7569 27.9758 13.5545L29.7249 11.0716L31.4713 13.5541C31.6139 13.7568 31.8406 13.8651 32.071 13.8651C32.2166 13.8651 32.3636 13.8219 32.4918 13.7317C32.8227 13.499 32.9022 13.0421 32.6694 12.7112L30.621 9.79947L32.361 7.32964C32.5939 6.99898 32.5146 6.54205 32.1839 6.30904C31.853 6.07603 31.3964 6.15533 31.1633 6.48599L29.7257 8.52671L28.2904 6.48638C28.0578 6.15562 27.6011 6.07593 27.27 6.30874C26.9391 6.54146 26.8596 6.99839 27.0924 7.32925L28.8296 9.79878L26.7783 12.7108C26.5453 13.0416 26.6246 13.4985 26.9551 13.7314Z" fill="black"/>
<path d="M18.5146 13.1324V7.64013H19.5079C19.9125 7.64013 20.2403 7.31221 20.2403 6.90771C20.2403 6.50322 19.9125 6.17529 19.5079 6.17529H16.0703C15.6657 6.17529 15.3379 6.50322 15.3379 6.90771C15.3379 7.31221 15.6657 7.64013 16.0703 7.64013H17.0497V13.1324C17.0497 13.5369 17.3775 13.8648 17.7821 13.8648C18.1867 13.8648 18.5146 13.5369 18.5146 13.1324Z" fill="black"/>
<path d="M46.7074 10.7043L39.7112 3.70821C37.588 1.58496 34.7647 0.415527 31.7617 0.415527H14.3301C12.58 0.415527 11.1562 1.83936 11.1562 3.58936V27.5486C8.72723 27.5192 6.35262 28.2892 4.41161 29.7481C4.08817 29.9912 4.02303 30.4502 4.2662 30.7736C4.50926 31.097 4.96844 31.1621 5.29169 30.9191C7.11258 29.5504 9.3744 28.8804 11.6611 29.0332C13.9687 29.187 16.1415 30.1733 17.779 31.8104C21.5046 35.5371 21.5046 41.5998 17.7791 45.3253C14.0525 49.051 7.98954 49.051 4.26405 45.3254C2.62674 43.6881 1.64022 41.516 1.48622 39.2091C1.33358 36.9233 2.00321 34.6613 3.37176 32.84C3.61473 32.5165 3.5495 32.0575 3.22616 31.8145C2.90292 31.5715 2.44364 31.6368 2.20067 31.9601C0.621373 34.0619 -0.151381 36.6709 0.0245956 39.3068C0.202232 41.9678 1.34003 44.4731 3.22821 46.3613C5.37684 48.5099 8.19852 49.584 11.0212 49.5838C13.2977 49.5836 15.5748 48.8839 17.4982 47.4859H46.8262C48.5763 47.4859 50 46.0621 50 44.3121V18.6539C50 15.6508 48.8306 12.8277 46.7074 10.7043ZM45.6716 11.7402C46.7392 12.8079 47.5289 14.0793 48.0057 15.4665C46.8085 14.2933 45.1707 13.568 43.3659 13.568H38.5566C37.6143 13.568 36.8476 12.8013 36.8476 11.859V7.04981C36.8476 5.24502 36.1223 3.60713 34.949 2.40987C36.3363 2.88663 37.6077 3.67627 38.6754 4.74405L45.6716 11.7402ZM48.5351 44.3121C48.5351 45.2543 47.7684 46.021 46.8262 46.021H19.1399C20.4875 44.5546 21.3652 42.8088 21.7724 40.9782H35.7275C36.1321 40.9782 36.4599 40.6502 36.4599 40.2457C36.4599 39.8413 36.1321 39.5133 35.7275 39.5133H21.9963C22.0848 38.4758 22.0274 37.4282 21.8239 36.404H43C43.4046 36.404 43.7324 36.076 43.7324 35.6715C43.7324 35.267 43.4046 34.9391 43 34.9391H21.4267C21.045 33.8386 20.4843 32.7871 19.7442 31.8302H43.0002C43.4048 31.8302 43.7326 31.5023 43.7326 31.0978C43.7326 30.6933 43.4048 30.3654 43.0002 30.3654H18.3816C16.7663 28.916 14.7625 27.9776 12.6211 27.6641V3.58936C12.6211 2.64707 13.3878 1.88038 14.3301 1.88038L30.2135 1.88047C33.0639 1.88047 35.3828 4.19942 35.3828 7.04981V11.859C35.3828 13.609 36.8065 15.0329 38.5566 15.0329H43.3658C46.2162 15.0329 48.5351 17.3518 48.5351 20.2022V44.3121Z" fill="black"/>
</g>
</g>
<defs>
<clipPath id="clip0_229_199">
<rect width="50" height="50" fill="white"/>
</clipPath>
</defs>
</svg>
