<svg width="60" height="60" viewBox="0 0 60 60" fill="none" xmlns="http://www.w3.org/2000/svg">
<g clip-path="url(#clip0_0_7005)">
<path d="M59.796 6.20936C59.7196 6.12005 59.6256 6.04754 59.5198 5.99641C59.4139 5.94528 59.2987 5.91664 59.1812 5.91229L52.0396 5.64862C51.928 5.6442 51.8165 5.66189 51.7117 5.70068C51.6069 5.73946 51.5108 5.79858 51.429 5.87462C51.3471 5.95067 51.2811 6.04215 51.2347 6.1438C51.1883 6.24545 51.1624 6.35527 51.1586 6.46694L51.0987 8.08952C48.2697 8.13569 44.7251 7.57577 41.2854 7.03061C35.7679 6.15616 30.5563 5.33034 28.1037 6.96428C27.4709 7.38616 26.7883 7.85842 26.0699 8.37147L17.8026 2.57936C17.3009 2.22879 16.6807 2.0915 16.078 2.19761C15.4752 2.30372 14.9392 2.64456 14.5874 3.14538L4.75444 17.1799C4.40378 17.6815 4.26643 18.3018 4.37252 18.9046C4.4786 19.5075 4.81947 20.0436 5.32034 20.3954L29.8063 37.5505C30.3079 37.9012 30.9282 38.0387 31.531 37.9326C32.1339 37.8264 32.6699 37.4854 33.0216 36.9844L41.6649 24.6475C42.5813 25.0726 43.7486 25.3835 45.5529 25.3835C46.6568 25.3726 47.7586 25.2833 48.8499 25.1164C49.4022 25.0272 49.9481 24.9016 50.4838 24.7403L50.4686 25.1533C50.4603 25.3786 50.5418 25.598 50.6952 25.7633C50.8487 25.9285 51.0615 26.026 51.2868 26.0343L56.8896 26.2412H56.9214C57.1293 26.2411 57.33 26.1648 57.4855 26.0267C57.641 25.8887 57.7405 25.6984 57.7651 25.492L59.9941 6.86292C60.008 6.74621 59.9976 6.62788 59.9635 6.51539C59.9294 6.4029 59.8724 6.2987 59.796 6.20936ZM31.6289 36.0087C31.5363 36.1407 31.3951 36.2305 31.2363 36.2585C31.0775 36.2864 30.9141 36.2501 30.782 36.1577L6.29628 19.0027C6.16432 18.9101 6.0745 18.7689 6.04653 18.6101C6.01856 18.4513 6.05473 18.2879 6.1471 18.1558L15.9801 4.12096C16.0728 3.98921 16.214 3.89956 16.3727 3.87162C16.5314 3.84369 16.6947 3.87974 16.8269 3.9719L32.4328 14.9055C31.8774 14.93 31.3547 14.9548 30.8635 14.9805L19.8047 7.23253C19.6201 7.10335 19.3917 7.05275 19.1698 7.09184C18.9479 7.13093 18.7505 7.25651 18.6211 7.441C18.2491 7.97075 17.6821 8.33129 17.0445 8.44353C16.407 8.55577 15.751 8.41054 15.2203 8.03971C15.0357 7.91044 14.8073 7.85979 14.5854 7.89888C14.3634 7.93798 14.1661 8.06362 14.0367 8.24819L9.36331 14.9187C9.23407 15.1034 9.18344 15.3317 9.22253 15.5537C9.26162 15.7756 9.38725 15.973 9.57179 16.1023C10.1015 16.4744 10.4621 17.0413 10.5743 17.6788C10.6866 18.3164 10.5414 18.9724 10.1706 19.503C10.0414 19.6876 9.99076 19.916 10.0298 20.1379C10.0689 20.3599 10.1945 20.5572 10.379 20.6866L27.8059 32.8961C27.8974 32.9602 28.0005 33.0056 28.1096 33.0298C28.2186 33.054 28.3313 33.0565 28.4412 33.0371C28.5512 33.0177 28.6563 32.9769 28.7504 32.9169C28.8446 32.8569 28.9261 32.779 28.9901 32.6875C29.3622 32.1578 29.9292 31.7973 30.5667 31.6851C31.2043 31.5728 31.8603 31.7181 32.3909 32.0889C32.5755 32.2181 32.8039 32.2687 33.0258 32.2296C33.2478 32.1905 33.4451 32.0649 33.5745 31.8805L38.248 25.2099C38.3774 25.0252 38.4281 24.7967 38.389 24.5746C38.3499 24.3526 38.2242 24.1551 38.0396 24.0257C37.7761 23.84 37.5519 23.6041 37.3797 23.3316C37.2075 23.0591 37.0907 22.7553 37.036 22.4376C38.5094 22.6975 39.3141 23.2197 40.1553 23.7686L40.1893 23.7908L31.6289 36.0087ZM23.0444 20.9283C23.1061 20.8404 23.1506 20.7415 23.1755 20.6369C23.2487 20.7163 23.3171 20.8 23.3805 20.8874C23.3728 20.9007 23.3624 20.9178 23.3479 20.9384L23.2527 21.0744C23.233 21.1009 23.2036 21.1188 23.1709 21.124C23.1382 21.1293 23.1047 21.1216 23.0776 21.1026C23.0504 21.0836 23.0318 21.0548 23.0256 21.0222C23.0194 20.9897 23.0261 20.956 23.0444 20.9283ZM23.1082 17.9016C23.0564 17.9579 23.0082 18.0174 22.9639 18.0798L22.8686 18.2157C22.4949 18.7491 22.4584 19.2235 22.5612 19.6171C22.3935 19.5739 22.2165 19.5828 22.054 19.6427C21.8915 19.7027 21.7511 19.8108 21.6517 19.9526C21.5136 20.149 21.4158 20.3707 21.364 20.6051C21.3121 20.8394 21.3073 21.0818 21.3497 21.318C21.3816 21.4991 21.4404 21.6744 21.5241 21.8381L21.4507 21.9428C21.3867 22.0343 21.3412 22.1375 21.317 22.2465C21.2928 22.3555 21.2903 22.4682 21.3097 22.5781C21.329 22.6881 21.3699 22.7932 21.4298 22.8874C21.4898 22.9815 21.5677 23.063 21.6592 23.1271C21.7506 23.1912 21.8538 23.2366 21.9628 23.2608C22.0718 23.285 22.1845 23.2875 22.2944 23.2681C22.4044 23.2488 22.5095 23.208 22.6037 23.148C22.6979 23.088 22.7793 23.0101 22.8434 22.9187L22.9173 22.8132C22.9922 22.823 23.0676 22.8281 23.1432 22.8284C23.2511 22.8284 23.3589 22.819 23.4652 22.8002C23.7017 22.7594 23.9278 22.6722 24.1304 22.5434C24.333 22.4147 24.508 22.247 24.6454 22.0502L24.7405 21.9142C24.8372 21.7784 24.9176 21.6317 24.9803 21.4773C25.7121 21.8022 26.5097 21.9516 27.3094 21.9134L27.3914 21.9172C27.3083 22.0781 27.2146 22.2332 27.1109 22.3817C26.703 22.9644 26.1484 23.4291 25.5032 23.7286C24.8581 24.0281 24.1452 24.1518 23.4369 24.0872C22.7285 24.0227 22.0498 23.7721 21.4694 23.3609C20.889 22.9497 20.4275 22.3925 20.1317 21.7457C19.8359 21.0988 19.7162 20.3853 19.7848 19.6773C19.8533 18.9693 20.1078 18.292 20.5222 17.7139C20.9367 17.1359 21.4966 16.6776 22.1451 16.3854C22.7936 16.0933 23.5078 15.9777 24.2154 16.0503C23.6498 16.5263 23.26 17.1781 23.1082 17.9016ZM26.9649 15.2783C26.2188 14.7862 25.368 14.4752 24.4804 14.3701C23.5928 14.2651 22.693 14.3689 21.8526 14.6732C21.0122 14.9776 20.2546 15.4741 19.6401 16.1231C19.0256 16.7722 18.5713 17.5558 18.3133 18.4116C18.0554 19.2673 18.0009 20.1715 18.1544 21.052C18.3078 21.9325 18.6648 22.765 19.197 23.4831C19.7292 24.2012 20.4218 24.785 21.2195 25.188C22.0173 25.591 22.8982 25.802 23.792 25.8042C24.1297 25.804 24.4666 25.7744 24.7991 25.7158C25.796 25.5404 26.7287 25.1043 27.5026 24.4519C28.2765 23.7994 28.8639 22.9538 29.2054 22.001L35.3065 22.2835C35.3693 23.2442 35.7618 24.1538 36.4177 24.8586L32.6186 30.2814C31.8786 29.9663 31.063 29.8728 30.2708 30.0122C29.4787 30.1515 28.744 30.5178 28.156 31.0666L11.9779 19.7322C12.293 18.9922 12.3865 18.1766 12.2471 17.3844C12.1078 16.5922 11.7415 15.8575 11.1927 15.2695L14.9911 9.84792C15.7311 10.1628 16.5466 10.2563 17.3386 10.1169C18.1306 9.97749 18.8652 9.61127 19.4532 9.06264L28.1541 15.1586C27.7197 15.1957 27.3233 15.2355 26.9649 15.2783ZM48.6078 23.4333C43.8087 24.1237 42.5455 23.2998 41.0833 22.3456C40.0067 21.6432 38.7864 20.847 36.2887 20.6275C36.2769 20.6265 36.2652 20.6257 36.2535 20.6252L27.3551 20.213C27.3327 20.212 27.3102 20.2119 27.2877 20.213C26.0403 20.2533 25.1241 19.8179 24.8321 19.0462C24.7239 18.7472 24.7126 18.4218 24.7999 18.116C24.8872 17.8103 25.0685 17.5398 25.3183 17.343C26.1491 16.8391 31.8059 16.625 34.849 16.5098C37.1894 16.4212 39.2106 16.3447 40.125 16.196C40.3476 16.1598 40.5467 16.0366 40.6784 15.8536C40.8102 15.6707 40.8639 15.4428 40.8277 15.2203C40.7915 14.9977 40.6683 14.7986 40.4854 14.6669C40.3024 14.5351 40.0746 14.4814 39.852 14.5176C39.0972 14.6403 37.2528 14.7168 35.2354 14.7936L27.5479 9.40776C28.0722 9.03862 28.5735 8.69468 29.046 8.37991C30.9459 7.11428 36.0666 7.92569 41.0188 8.7105C44.4937 9.26128 48.0735 9.82647 51.0354 9.79108L50.5501 22.949C49.9148 23.1554 49.2659 23.3172 48.6081 23.4333H48.6078ZM56.1698 24.513L52.199 24.3665L52.826 7.37925L58.1957 7.57741L56.1698 24.513ZM54.1893 12.8253L54.259 10.9376C54.2627 10.8257 54.2884 10.7157 54.3347 10.6137C54.381 10.5118 54.447 10.42 54.5288 10.3437C54.6107 10.2673 54.7068 10.2078 54.8117 10.1687C54.9166 10.1296 55.0282 10.1116 55.1401 10.1157C55.252 10.1199 55.3619 10.146 55.4637 10.1928C55.5654 10.2395 55.6569 10.3059 55.7329 10.3881C55.809 10.4703 55.868 10.5667 55.9066 10.6717C55.9453 10.7768 55.9628 10.8885 55.9582 11.0003L55.8885 12.8881C55.8804 13.1079 55.7874 13.316 55.6291 13.4687C55.4708 13.6214 55.2594 13.7068 55.0395 13.7069C55.0289 13.7069 55.0183 13.7069 55.0076 13.7069C54.7822 13.6985 54.5695 13.6008 54.4161 13.4355C54.2627 13.2702 54.1812 13.0507 54.1896 12.8253H54.1893ZM47.6311 41.9565L31.3798 48.4069C28.4514 48.7773 25.7196 48.6438 23.1089 47.9968C29.8573 46.9324 32.7257 46.2787 33.4759 45.6589C33.9547 45.272 34.3004 44.745 34.4646 44.1517C34.6288 43.5585 34.6034 42.9287 34.3918 42.3507C33.8808 41.0002 32.4933 40.2318 30.679 40.2898C30.6468 40.2908 30.6147 40.2937 30.5828 40.2985L22.8423 41.4423C21.108 41.2733 20.3016 40.7473 19.4489 40.191C18.0201 39.2586 16.5427 38.2947 11.7166 38.9888C10.9906 39.0933 10.1423 39.353 9.2439 39.6278C9.02323 39.6953 8.79859 39.7635 8.57241 39.8312L8.60089 39.0599C8.60922 38.8346 8.52769 38.6152 8.37425 38.45C8.22081 38.2848 8.00802 38.1873 7.78269 38.1789L2.84534 37.9968C2.6321 37.9891 2.42373 38.0618 2.26155 38.2004C2.09936 38.3391 1.99521 38.5337 1.96972 38.7455L0.00600763 55.1628C-0.00793843 55.2795 0.00245909 55.3978 0.0365438 55.5103C0.0706285 55.6227 0.12766 55.7269 0.204038 55.8162C0.280417 55.9056 0.374482 55.9781 0.480298 56.0292C0.586113 56.0803 0.701379 56.109 0.81882 56.1133L7.11179 56.3456H7.14366C7.36364 56.3454 7.575 56.26 7.73334 56.1073C7.89168 55.9546 7.98468 55.7465 7.99281 55.5267L8.02363 54.6923C10.3268 55.2466 12.0069 55.758 13.5107 56.2157C16.4755 57.1181 18.6184 57.7707 22.8587 57.8329C23.0671 57.8361 23.2698 57.8376 23.4681 57.8376C28.5084 57.8376 30.4759 56.8612 33.3953 55.4118L33.775 55.2235C41.2313 51.5332 50.3442 46.8798 50.9185 46.4117C52.113 45.4374 52.5239 43.7804 51.8536 42.6393C51.5905 42.1907 50.5071 40.8149 47.6311 41.9565ZM6.32523 54.6151L1.80402 54.4482L3.56523 39.7256L6.86991 39.8475L6.32523 54.6151ZM49.859 45.0822C49.2255 45.5083 41.77 49.37 33.0214 53.7L32.6398 53.8891C29.7271 55.3352 27.9702 56.2076 22.8839 56.1333C18.8841 56.0748 16.9436 55.484 14.0063 54.5898C12.4862 54.1271 10.6228 53.5603 8.08831 52.9608L8.50691 41.6227C8.93066 41.5025 9.34163 41.3774 9.74218 41.2548C10.5757 40.9998 11.3631 40.7588 11.9591 40.673C16.1509 40.0699 17.2487 40.7865 18.5203 41.616C19.4789 42.2416 20.5655 42.9506 22.7917 43.1462C22.8581 43.152 22.925 43.15 22.9909 43.1403L30.7823 41.989C31.812 41.9675 32.5644 42.3249 32.8022 42.9534C32.8901 43.198 32.8986 43.464 32.8265 43.7137C32.7543 43.9634 32.6051 44.1839 32.4003 44.3438C32.2918 44.4168 31.58 44.7891 27.625 45.5173C25.2174 45.9608 22.5538 46.3674 20.7913 46.6366C20.1947 46.7276 19.715 46.8007 19.4041 46.8515C19.2224 46.8811 19.0552 46.9688 18.9276 47.1015C18.8001 47.2342 18.719 47.4048 18.6967 47.5875C18.6743 47.7702 18.7119 47.9552 18.8037 48.1148C18.8956 48.2743 19.0367 48.3997 19.2059 48.4722C23.1047 50.1423 27.1933 50.6678 31.7049 50.0801C31.7747 50.071 31.8432 50.0532 31.9087 50.0273L48.2594 43.5373C49.319 43.117 50.1548 43.1028 50.3888 43.5012C50.6016 43.8655 50.4366 44.601 49.859 45.0822ZM3.56148 51.5249L3.62288 49.8616C3.63224 49.637 3.73015 49.4253 3.8952 49.2727C4.06025 49.1201 4.27901 49.0391 4.50363 49.0474C4.72825 49.0556 4.94045 49.1525 5.09383 49.3168C5.24721 49.4811 5.32928 49.6995 5.3221 49.9242L5.26069 51.5882C5.2526 51.808 5.15962 52.0162 5.0013 52.1689C4.84298 52.3216 4.63164 52.407 4.41167 52.4071C4.40101 52.4071 4.39034 52.4071 4.37968 52.4064C4.26806 52.4023 4.15835 52.3763 4.05681 52.3297C3.95527 52.2832 3.86389 52.2171 3.78791 52.1352C3.71192 52.0534 3.65281 51.9573 3.61396 51.8526C3.57511 51.7479 3.55727 51.6366 3.56148 51.5249ZM18.8918 16.623C18.7624 16.8077 18.565 16.9334 18.3429 16.9724C18.1208 17.0115 17.8923 16.9608 17.7076 16.8315L13.7561 14.0627C13.5714 13.9333 13.4457 13.7358 13.4066 13.5138C13.3675 13.2917 13.4182 13.0632 13.5476 12.8785C13.677 12.6938 13.8744 12.5681 14.0965 12.529C14.3186 12.4899 14.5471 12.5406 14.7318 12.67L18.6834 15.4386C18.7748 15.5026 18.8528 15.5841 18.9128 15.6783C18.9728 15.7725 19.0136 15.8776 19.033 15.9876C19.0523 16.0976 19.0498 16.2103 19.0256 16.3193C19.0014 16.4284 18.9559 16.5315 18.8918 16.623ZM28.7174 23.5068C28.8468 23.3223 29.0441 23.1967 29.2661 23.1576C29.488 23.1185 29.7164 23.1691 29.901 23.2983L33.8527 26.0669C33.9451 26.1306 34.0239 26.2119 34.0847 26.3062C34.1455 26.4005 34.187 26.5059 34.2069 26.6163C34.2267 26.7267 34.2246 26.84 34.2005 26.9496C34.1763 27.0591 34.1308 27.1629 34.0664 27.2547C34.002 27.3466 33.9201 27.4249 33.8254 27.4849C33.7306 27.545 33.6249 27.5857 33.5143 27.6048C33.4038 27.6238 33.2905 27.6207 33.1811 27.5958C33.0717 27.5709 32.9684 27.5245 32.877 27.4594L28.9258 24.6916C28.8343 24.6275 28.7563 24.546 28.6963 24.4518C28.6363 24.3575 28.5954 24.2524 28.5761 24.1424C28.5567 24.0324 28.5593 23.9196 28.5835 23.8105C28.6078 23.7015 28.6533 23.5983 28.7174 23.5068Z" fill="black"/>
</g>
<defs>
<clipPath id="clip0_0_7005">
<rect width="60" height="60" fill="white"/>
</clipPath>
</defs>
</svg>
