<svg width="52" height="51" viewBox="0 0 52 51" fill="none" xmlns="http://www.w3.org/2000/svg">
<mask id="mask0_239_408" style="mask-type:luminance" maskUnits="userSpaceOnUse" x="1" y="0" width="50" height="51">
<path d="M51 0.5H1V50.5H51V0.5Z" fill="white"/>
</mask>
<g mask="url(#mask0_239_408)">
<path d="M50.6582 22.3361L20.1895 4.74588C19.3146 4.2425 18.2759 4.1065 17.3009 4.36768C16.326 4.62887 15.4943 5.26593 14.9883 6.13924L11.4805 12.2146L9.14531 16.2588C8.64164 17.1339 8.5056 18.1731 8.76702 19.1484C9.02844 20.1237 9.66599 20.9556 10.5398 21.4615L20.9863 27.4923L19.3617 30.2627C19.1456 30.6293 18.8378 30.9334 18.4684 31.145C18.0991 31.3566 17.6811 31.4683 17.2555 31.4693H11.1562V26.8209C11.1562 26.6396 11.0842 26.4657 10.956 26.3375C10.8278 26.2093 10.654 26.1373 10.4727 26.1373H6.76172V25.2552C6.76079 24.4526 6.44154 23.6831 5.874 23.1156C5.30647 22.5481 4.53699 22.2288 3.73438 22.2279H1.68359C1.59381 22.2278 1.50489 22.2455 1.42193 22.2798C1.33897 22.3142 1.26359 22.3645 1.20011 22.428C1.13662 22.4915 1.08627 22.5669 1.05193 22.6498C1.0176 22.7328 0.999949 22.8217 1 22.9115V46.0822C0.999949 46.172 1.0176 46.2609 1.05193 46.3439C1.08627 46.4268 1.13662 46.5022 1.20011 46.5657C1.26359 46.6292 1.33897 46.6795 1.42193 46.7139C1.50489 46.7482 1.59381 46.7658 1.68359 46.7658H3.73438C4.53699 46.7649 5.30647 46.4456 5.874 45.8781C6.44154 45.3105 6.76079 44.5411 6.76172 43.7384V41.567H10.4727C10.654 41.567 10.8278 41.4949 10.956 41.3667C11.0842 41.2385 11.1562 41.0647 11.1562 40.8834V37.524H17.2555C18.7363 37.5208 20.1909 37.1322 21.4759 36.3962C22.761 35.6603 23.8323 34.6024 24.5844 33.3267L26.2301 30.5205L31.9563 33.8263C32.5328 34.1608 33.1874 34.3374 33.8539 34.3381C34.189 34.3379 34.5225 34.2938 34.8461 34.2068C35.4679 34.0414 36.0372 33.7202 36.5004 33.2736C37.2494 33.6211 38.065 33.8016 38.8906 33.8025C39.3966 33.8022 39.9004 33.7354 40.3891 33.6041C41.6354 33.2728 42.7329 32.5293 43.5027 31.4947L44.9027 32.3029C44.9805 32.3479 45.0663 32.377 45.1554 32.3888C45.2444 32.4005 45.3349 32.3946 45.4216 32.3714C45.5084 32.3481 45.5897 32.308 45.6609 32.2533C45.7321 32.1985 45.7919 32.1303 45.8367 32.0525L50.907 23.2709C50.9521 23.1931 50.9814 23.1073 50.9932 23.0183C51.0051 22.9292 50.9993 22.8387 50.9762 22.7519C50.9531 22.6651 50.9131 22.5837 50.8586 22.5124C50.804 22.441 50.7359 22.3811 50.6582 22.3361ZM5.39453 43.7384C5.39412 44.1786 5.21908 44.6006 4.90783 44.9119C4.59658 45.2231 4.17455 45.3982 3.73438 45.3986H2.36719V23.5951H3.73438C4.17455 23.5955 4.59658 23.7705 4.90783 24.0818C5.21908 24.393 5.39412 24.8151 5.39453 25.2552V43.7384ZM9.78906 40.1998H6.76172V27.5045H9.78906V40.1998ZM23.4047 32.6349C22.7738 33.7054 21.875 34.5932 20.7967 35.2108C19.7185 35.8284 18.498 36.1545 17.2555 36.1572H11.1562V32.8369H17.2555C17.9194 32.8354 18.5715 32.6611 19.1476 32.3311C19.7237 32.0011 20.2039 31.5268 20.541 30.9548L22.1719 28.1767L25.0477 29.8369L23.4047 32.6349ZM32.6406 32.6423L11.2234 20.2775C10.6632 19.9533 10.2544 19.42 10.0869 18.7947C9.91932 18.1695 10.0066 17.5033 10.3297 16.9423L12.3219 13.4904L31.9496 24.8224L37.9672 28.2966L35.9746 31.7502L35.9719 31.7545C35.9199 31.8427 35.8624 31.9275 35.7996 32.0084V32.0111C35.4391 32.4815 34.92 32.8048 34.3389 32.9209C33.7577 33.0371 33.1542 32.938 32.6406 32.6423ZM40.0379 32.2834C39.1425 32.5255 38.1932 32.4755 37.3281 32.1408L39.1535 28.9795L42.3148 30.8045C41.7325 31.5275 40.9353 32.0456 40.0379 32.2834ZM44.9969 30.7755L40.5762 28.2232L39.2422 27.4533L24.1496 18.74L13.0063 12.3064L16.1723 6.82284C16.4966 6.26271 17.03 5.85413 17.6552 5.68672C18.2804 5.51931 18.9466 5.60676 19.5074 5.92987L49.3824 23.1787L44.9969 30.7755Z" fill="white"/>
<path d="M42.0758 27.0601C42.4739 27.2914 42.926 27.4133 43.3864 27.4137C43.6175 27.4135 43.8476 27.383 44.0708 27.323C44.6583 27.1657 45.173 26.8095 45.5274 26.3151C45.8817 25.8208 46.0536 25.2189 46.0139 24.612C45.9742 24.0051 45.7253 23.4307 45.3096 22.9868C44.8939 22.5428 44.3371 22.2567 43.7341 22.1773C43.1311 22.0978 42.5192 22.2299 42.0027 22.551C41.4861 22.8721 41.0969 23.3624 40.9013 23.9383C40.7058 24.5142 40.7159 25.1401 40.9301 25.7093C41.1442 26.2786 41.5492 26.756 42.0758 27.0601ZM42.2981 24.1527C42.3808 24.0093 42.4911 23.8837 42.6226 23.7832C42.754 23.6826 42.9041 23.6091 43.0641 23.5668C43.1712 23.5381 43.2815 23.5236 43.3923 23.5234C43.6703 23.5235 43.9405 23.6152 44.161 23.7845C44.3816 23.9538 44.5401 24.1911 44.612 24.4596C44.6839 24.7282 44.6652 25.0129 44.5588 25.2698C44.4523 25.5266 44.2641 25.7411 44.0234 25.8801C43.7826 26.0191 43.5027 26.0747 43.227 26.0384C42.9514 26.002 42.6955 25.8758 42.4989 25.6792C42.3024 25.4825 42.1762 25.2266 42.14 24.9509C42.1037 24.6753 42.1595 24.3954 42.2985 24.1547L42.2981 24.1527Z" fill="white"/>
<path d="M18.7754 20.1372L13.1738 16.9025C13.0961 16.8569 13.0101 16.8271 12.9207 16.8149C12.8314 16.8027 12.7406 16.8083 12.6534 16.8313C12.5662 16.8544 12.4845 16.8944 12.4129 16.9492C12.3413 17.0039 12.2812 17.0723 12.2361 17.1504C12.191 17.2285 12.1619 17.3147 12.1502 17.4041C12.1386 17.4935 12.1448 17.5843 12.1684 17.6713C12.192 17.7583 12.2326 17.8398 12.2879 17.911C12.3431 17.9823 12.4119 18.0419 12.4903 18.0865L18.0934 21.3208C18.2497 21.4026 18.4317 21.4207 18.6011 21.3714C18.7705 21.3221 18.9143 21.2092 19.0024 21.0563C19.0905 20.9035 19.1161 20.7224 19.0738 20.5511C19.0315 20.3798 18.9246 20.2315 18.7754 20.1372Z" fill="white"/>
</g>
</svg>
