<svg width="50" height="50" viewBox="0 0 50 50" fill="none" xmlns="http://www.w3.org/2000/svg">
<g clip-path="url(#clip0_229_190)">
<mask id="mask0_229_190" style="mask-type:luminance" maskUnits="userSpaceOnUse" x="0" y="0" width="50" height="50">
<path d="M50 0H0V50H50V0Z" fill="white"/>
</mask>
<g mask="url(#mask0_229_190)">
<path d="M13.3789 13.248C12.9744 13.248 12.6465 13.5759 12.6465 13.9804C12.6465 14.385 12.9744 14.7129 13.3789 14.7129H23.538C23.9425 14.7129 24.2704 14.385 24.2704 13.9804C24.2704 13.5759 23.9425 13.248 23.538 13.248H13.3789Z" fill="black"/>
<path d="M35.9484 28.8138C37.936 28.8138 39.5531 27.1967 39.5531 25.2091V24.1648C39.5531 22.1771 37.936 20.5601 35.9484 20.5601C33.9608 20.5601 32.3438 22.1772 32.3438 24.1648V25.209C32.3438 27.1967 33.9608 28.8138 35.9484 28.8138ZM33.8086 24.1648C33.8086 22.9849 34.7686 22.0249 35.9484 22.0249C37.1283 22.0249 38.0883 22.9849 38.0883 24.1648V25.209C38.0883 26.3889 37.1283 27.3489 35.9484 27.3489C34.7686 27.3489 33.8086 26.3889 33.8086 25.209V24.1648Z" fill="black"/>
<path d="M30.9792 29.516C30.382 30.4567 30.0664 31.5448 30.0664 32.663V34.8882C30.0664 35.9601 30.9385 36.8322 32.0104 36.8322H39.8894C40.9613 36.8322 41.8334 35.96 41.8334 34.8882V32.663C41.8334 31.5449 41.5178 30.4567 40.9206 29.516C40.3621 28.6363 39.198 28.3729 38.3232 28.9334C36.8758 29.8611 35.0195 29.8577 33.5768 28.9334C32.7049 28.3749 31.5395 28.6336 30.9792 29.516ZM36.7544 31.0377L35.9499 32.3629L35.1454 31.0377C35.6604 31.1087 36.2023 31.1137 36.7544 31.0377ZM32.572 30.1042C32.7202 30.1042 32.7728 30.1635 32.9727 30.2814L34.8306 33.3419C35.07 33.7363 35.4885 33.9718 35.9499 33.9718C36.4113 33.9718 36.8298 33.7363 37.0692 33.3419L38.9271 30.2814C39.1161 30.17 39.2167 30.0688 39.4173 30.1139C39.5281 30.1384 39.6228 30.2049 39.6839 30.3011C40.6908 31.8874 40.2692 33.2596 40.3686 34.8883C40.3686 35.1525 40.1536 35.3674 39.8894 35.3674H32.0104C31.7462 35.3674 31.5312 35.1525 31.5312 34.8883V32.6631C31.5312 31.8235 31.768 31.0068 32.2159 30.3011C32.2964 30.1743 32.4324 30.1042 32.572 30.1042Z" fill="black"/>
<path d="M48.4056 23.882C45.8748 22.8021 43.9297 20.6852 43.0689 18.0738C42.8016 17.2625 42.1229 16.6781 41.2978 16.5488C39.5344 16.272 37.7348 16.1317 35.9491 16.1317C34.1634 16.1317 32.3638 16.272 30.6004 16.5488C29.7753 16.6781 29.0966 17.2626 28.8293 18.0738C28.477 19.1424 27.9431 20.1282 27.2618 20.9941H6.11854C5.71405 20.9941 5.38612 21.3219 5.38612 21.7265C5.38612 22.1311 5.71405 22.4589 6.11854 22.4589H25.8307C25.1304 23.037 24.3446 23.5183 23.4924 23.8819C22.584 24.2695 22.0429 25.1862 22.1459 26.1631C22.175 26.4392 22.2094 26.7145 22.2489 26.9891H6.11854C5.71405 26.9891 5.38612 27.3169 5.38612 27.7215C5.38612 28.1261 5.71405 28.4539 6.11854 28.4539H22.5105C22.8425 30.0085 23.3415 31.5281 23.9971 32.9851H6.11854C5.71405 32.9851 5.38612 33.3129 5.38612 33.7175C5.38612 34.1221 5.71405 34.4499 6.11854 34.4499H24.7205C25.1894 35.3197 25.7165 36.1621 26.2991 36.9706C26.8097 37.679 27.3547 38.3499 27.9306 38.9803H6.11854C5.71405 38.9803 5.38612 39.3081 5.38612 39.7127C5.38612 40.1173 5.71405 40.4451 6.11854 40.4451H29.405C31.1183 41.9884 33.0438 43.2103 35.1097 44.0531C35.1453 44.0676 35.1811 44.0811 35.2172 44.0938V46.9617C35.2172 47.8292 34.5114 48.535 33.6439 48.535H3.27283C2.40535 48.535 1.69959 47.8291 1.69959 46.9617V12.6789H10.1591C11.6778 12.6789 12.9134 11.4434 12.9134 9.92463V1.46477H33.6438C34.5113 1.46477 35.2171 2.17063 35.2171 3.03801V13.9345C35.2171 14.3391 35.545 14.6669 35.9495 14.6669C36.354 14.6669 36.6819 14.3391 36.6819 13.9345V3.03811C36.6819 1.36291 35.319 2.19604e-05 33.6438 2.19604e-05H12.1871C12.1489 -0.000271008 12.1109 0.00236571 12.0733 0.00802977C12.0728 0.00802977 12.0724 0.00812743 12.072 0.00822509C12.0666 0.00900634 12.0611 0.00988524 12.0557 0.0108618C12.0554 0.0109595 12.0551 0.0109595 12.0547 0.0110571C12.0432 0.0131079 12.0319 0.015354 12.0207 0.0178931C12.02 0.0179907 12.0194 0.018186 12.0187 0.0182837C12.0136 0.0194556 12.0085 0.0207251 12.0033 0.0219946C12.0029 0.0220923 12.0024 0.0221899 12.002 0.0222876C11.9908 0.0251196 11.9797 0.0282446 11.9685 0.0315649C11.9681 0.0316626 11.9677 0.0318579 11.9673 0.0319556C11.9506 0.0370337 11.934 0.0427954 11.9176 0.0490454C11.9178 0.0489477 11.9174 0.0491431 11.9176 0.0490454C11.8241 0.0850805 11.7367 0.14094 11.663 0.214573L0.448909 11.4286C0.303108 11.5744 0.228401 11.7714 0.234748 11.97V46.9618C0.234748 48.637 1.59764 49.9999 3.27283 49.9999H33.6439C35.3191 49.9999 36.682 48.637 36.682 46.9618V44.0935C36.7177 44.081 36.7531 44.0676 36.7884 44.0531C40.982 42.3422 44.6075 39.0473 46.9971 34.7753C47.1945 34.4223 47.0684 33.976 46.7154 33.7785C46.3625 33.5812 45.9161 33.7073 45.7186 34.0603C43.4905 38.0437 40.1224 41.1109 36.235 42.6968C36.0533 42.771 35.8448 42.771 35.6631 42.6968C33.6955 41.8941 31.8631 40.7166 30.2381 39.2227C30.2083 39.1897 30.1756 39.1594 30.1403 39.1322C29.1766 38.2341 28.2873 37.224 27.4875 36.1143C26.872 35.2602 26.3228 34.3658 25.8433 33.44C25.8273 33.401 25.8082 33.3638 25.786 33.3285C24.8658 31.5259 24.2089 29.6058 23.8397 27.6322C23.8361 27.6021 23.8305 27.5727 23.8234 27.5439C23.7306 27.0356 23.6569 26.5239 23.6027 26.0097C23.5677 25.6765 23.7543 25.3628 24.0674 25.2293C26.9852 23.9844 29.2279 21.5434 30.2205 18.5323C30.3151 18.2454 30.5476 18.0399 30.8274 17.9959C32.516 17.731 34.2391 17.5966 35.9491 17.5966C37.6591 17.5966 39.3822 17.731 41.0708 17.9959C41.3506 18.0399 41.5832 18.2454 41.6777 18.5323C42.6703 21.5434 44.913 23.9844 47.8308 25.2293C48.1439 25.3628 48.3305 25.6765 48.2955 26.0097C48.0988 27.8751 47.6411 29.7232 46.935 31.5027C46.7858 31.8786 46.9697 32.3043 47.3457 32.4535C47.7216 32.6022 48.1473 32.4189 48.2966 32.0429C49.0518 30.1395 49.5416 28.1613 49.7522 26.1632C49.8552 25.1863 49.314 24.2696 48.4056 23.882ZM10.1591 11.2141H2.73504L11.4485 2.50061V9.92463C11.4486 10.6357 10.8701 11.2141 10.1591 11.2141Z" fill="black"/>
</g>
</g>
<defs>
<clipPath id="clip0_229_190">
<rect width="50" height="50" fill="white"/>
</clipPath>
</defs>
</svg>
