<svg width="52" height="51" viewBox="0 0 52 51" fill="none" xmlns="http://www.w3.org/2000/svg">
<mask id="mask0_239_400" style="mask-type:luminance" maskUnits="userSpaceOnUse" x="1" y="0" width="50" height="51">
<path d="M51 0.5H1V50.5H51V0.5Z" fill="white"/>
</mask>
<g mask="url(#mask0_239_400)">
<path d="M10.5977 23.5592C11.7036 23.5207 12.7505 23.059 13.5256 22.2786C15.2226 23.9915 17.9879 23.9906 19.6842 22.2788C20.4968 23.0989 21.5985 23.5626 22.7624 23.563C23.1669 23.563 23.495 23.2353 23.4951 22.8308C23.4952 22.4263 23.1675 22.0983 22.763 22.0982C21.905 22.0979 21.0977 21.7169 20.5481 21.0528C20.3337 20.7936 20.0188 20.645 19.6842 20.645C19.3497 20.645 19.0348 20.7936 18.8203 21.0528C17.6657 22.4479 15.5419 22.4451 14.3895 21.0528C13.9384 20.5076 13.1104 20.5105 12.6618 21.0528C12.1295 21.696 11.3783 22.0662 10.5467 22.0951C10.1424 22.1092 9.82614 22.4484 9.8403 22.8525C9.85436 23.2569 10.1931 23.5728 10.5977 23.5592Z" fill="white"/>
<path d="M10.5975 19.3261C11.7035 19.2876 12.7505 18.8259 13.5256 18.0456C14.8079 19.3378 16.7708 19.6978 18.4301 18.9284C18.7971 18.7581 18.9566 18.3227 18.7863 17.9558C18.6162 17.5888 18.181 17.4295 17.8138 17.5995C16.6312 18.1479 15.2231 17.8273 14.3895 16.8199C13.9384 16.2748 13.1103 16.2776 12.6619 16.8199C12.1294 17.4632 11.3783 17.8335 10.5468 17.8623C10.1425 17.8763 9.82614 18.2154 9.8403 18.6197C9.85427 19.0238 10.1975 19.3389 10.5975 19.3261Z" fill="white"/>
<path d="M50.9232 18.0868C48.7635 12.6663 43.8665 8.91428 38.2469 8.13275V7.43472C38.2469 6.2034 37.2452 5.20166 36.0139 5.20166C34.7825 5.20166 33.7807 6.2034 33.7807 7.43472V8.13275C31.9854 8.38246 30.2542 8.93303 28.647 9.76612H20.4356C20.0311 9.76612 19.7032 10.094 19.7032 10.4985C19.7032 10.903 20.0311 11.2309 20.4356 11.2309H26.3284C25.7444 11.6739 25.123 12.2156 24.5788 12.7675H8.24614C7.89614 12.7675 7.59508 13.0152 7.5275 13.3586L4.33967 29.5661C4.25081 30.0183 4.59738 30.4398 5.05831 30.4398H13.3502V31.9764H3.23374C2.75025 31.9764 2.38658 31.5336 2.47994 31.0598L6.25799 11.8508C6.3286 11.4916 6.64568 11.2308 7.01179 11.2308H16.934C17.3385 11.2308 17.6664 10.9029 17.6664 10.4984C17.6664 10.094 17.3385 9.76602 16.934 9.76602H7.01179C5.94755 9.76602 5.02599 10.524 4.82062 11.5682L1.04276 30.777C0.77099 32.1575 1.82927 33.4412 3.23383 33.4412H13.3503V35.1619C13.3503 35.5664 13.6782 35.8943 14.0827 35.8943C14.4873 35.8943 14.8151 35.5664 14.8151 35.1619V33.4412H17.9525V35.1619C17.9525 35.5664 18.2803 35.8943 18.6849 35.8943C19.0895 35.8943 19.4173 35.5664 19.4173 35.1619V33.4412H33.7808V35.5098H26.7094C25.4781 35.5098 24.4764 36.5116 24.4764 37.743C24.4764 38.7444 25.139 39.5939 26.0488 39.8763V43.5655C26.0488 44.7969 27.0507 45.7986 28.282 45.7986C29.5133 45.7986 30.515 44.7969 30.515 43.5655V39.9761H41.2052V43.5655C41.2052 44.7969 42.2069 45.7986 43.4382 45.7986C44.6695 45.7986 45.6714 44.7969 45.6714 43.5655V38.362L50.2341 30.7647C50.5322 30.2683 50.6241 29.6811 50.4963 29.1183L49.6793 24.9639C49.6014 24.5671 49.2161 24.3084 48.8193 24.3866C48.4224 24.4646 48.1639 24.8497 48.2419 25.2466L48.667 27.4076C48.1335 27.3237 47.5831 27.4453 47.1595 27.7054L45.5561 19.5521H47.1219L47.5532 21.7449C47.6313 22.1416 48.0166 22.4003 48.4132 22.3222C48.8101 22.2442 49.0686 21.8591 48.9906 21.4623L48.6149 19.5521H49.9272C50.6816 19.5522 51.2033 18.7898 50.9232 18.0868ZM38.2469 33.4412H43.4166L42.1743 35.5098H38.2468L38.2469 33.4412ZM44.2964 31.9764H38.2469V30.4398H45.2191C44.8992 30.9727 44.6175 31.4418 44.2964 31.9764ZM33.3901 18.0874C34.0499 11.5395 35.5177 9.45909 36.0082 9.44327H36.0196C36.5099 9.459 37.9777 11.5393 38.6377 18.0874C37.9622 18.0874 34.1629 18.0874 33.3901 18.0874ZM28.2935 18.0874C29.334 14.1095 31.3515 11.1669 33.727 9.99805C32.6787 12.2054 32.1572 15.6687 31.9188 18.0874H28.2935ZM22.6937 18.0874C24.2843 14.5177 27.2238 11.8043 30.6965 10.4431C28.7005 12.4828 27.4554 15.326 26.7828 18.0874H22.6937ZM40.109 18.0874C39.8701 15.665 39.3484 12.2036 38.3007 9.99795C40.6763 11.1668 42.6936 14.1094 43.7342 18.0874H40.109ZM35.2455 7.99633V7.43472C35.2455 7.0111 35.5901 6.66647 36.0139 6.66647C36.4375 6.66647 36.7821 7.0111 36.7821 7.43472V7.99633C36.2951 7.97328 35.7699 7.97172 35.2455 7.99633ZM8.84847 14.2323H23.3022C22.4005 15.4021 21.6589 16.6954 21.1046 18.0865C20.8247 18.7887 21.3451 19.5522 22.1006 19.5522H33.7806V28.975H19.4172V28.2587C19.4172 26.5861 18.0564 25.2253 16.3838 25.2253C15.4642 25.2253 14.6395 25.6372 14.0827 26.2854C13.526 25.6371 12.7013 25.2253 11.7817 25.2253C10.109 25.2253 8.74828 26.5861 8.74828 28.2587V28.975H5.94882L8.84847 14.2323ZM13.3502 28.975H10.2129V28.2587C10.2129 27.3938 10.9166 26.6901 11.7815 26.6901C12.6464 26.6901 13.3501 27.3938 13.3501 28.2587L13.3502 28.975ZM17.9524 28.975H14.8151V28.2587C14.8151 27.3938 15.5187 26.6901 16.3837 26.6901C17.2486 26.6901 17.9523 27.3938 17.9523 28.2587L17.9524 28.975ZM14.8151 31.9764V30.4398H17.9524V31.9764H14.8151ZM19.4172 31.9764V30.4398H33.7807V31.9764H19.4172ZM35.2455 19.5522H36.7821V35.5098H35.2455C35.2455 34.0261 35.2455 21.4231 35.2455 19.5522ZM29.0501 43.5654C29.0501 43.9891 28.7055 44.3337 28.2819 44.3337C27.8582 44.3337 27.5135 43.9891 27.5135 43.5654V39.976H29.0501V43.5654ZM44.2065 43.5654C44.2065 43.9891 43.8619 44.3337 43.4381 44.3337C43.0145 44.3337 42.6699 43.9891 42.6699 43.5654V39.976H43.4381C43.679 39.976 43.9526 39.9322 44.2065 39.8382V43.5654ZM48.7151 28.9564C49.0781 29.1743 49.1968 29.6466 48.9782 30.0105L44.3111 37.7817L44.0968 38.1384C43.9587 38.3683 43.7064 38.5111 43.4381 38.5111C41.375 38.5111 28.7538 38.5111 26.7094 38.5111C26.2857 38.5111 25.9411 38.1665 25.9411 37.7429C25.9411 37.3193 26.2857 36.9746 26.7094 36.9746H42.5888C42.846 36.9746 43.0843 36.8397 43.2167 36.6192C43.9945 35.3243 46.3964 31.3249 47.1413 30.0845L47.6608 29.2194C47.8787 28.8566 48.3495 28.7367 48.7151 28.9564ZM45.9161 28.975H38.2469V19.5522H44.0629L45.9161 28.975ZM45.245 18.0874C44.5722 15.3256 43.327 12.4826 41.3313 10.4431C44.755 11.785 47.7167 14.4573 49.3341 18.0874C47.8872 18.0874 46.692 18.0874 45.245 18.0874Z" fill="white"/>
</g>
</svg>
