<svg width="60" height="60" viewBox="0 0 60 60" fill="none" xmlns="http://www.w3.org/2000/svg">
<path d="M38.9132 41.0286C38.6802 41.0286 38.4566 41.1212 38.2918 41.2861C38.127 41.4508 38.0344 41.6744 38.0344 41.9076V43.2306C38.0344 43.4636 38.127 43.6872 38.2918 43.852C38.4566 44.0168 38.6802 44.1094 38.9132 44.1094C39.1464 44.1094 39.37 44.0168 39.5347 43.852C39.6996 43.6872 39.7922 43.4636 39.7922 43.2306V41.9076C39.7922 41.6744 39.6996 41.4508 39.5347 41.2861C39.37 41.1212 39.1464 41.0286 38.9132 41.0286Z" fill="black"/>
<path d="M7.03127 27.0703H9.60939C9.84249 27.0703 10.066 26.9776 10.2309 26.8129C10.3957 26.648 10.4883 26.4244 10.4883 26.1914C10.4883 25.9582 10.3957 25.7347 10.2309 25.5699C10.066 25.405 9.84249 25.3125 9.60939 25.3125H7.03127C5.70471 25.3125 4.6254 26.4211 4.6254 27.7827V27.8613C4.6254 29.2241 5.70471 30.3316 7.03127 30.3316H8.07892C8.25689 30.3477 8.42238 30.4298 8.5429 30.5618C8.66342 30.6938 8.73023 30.866 8.73023 31.0447C8.73023 31.2233 8.66342 31.3957 8.5429 31.5275C8.42238 31.6595 8.25689 31.7416 8.07892 31.7577H5.50079C5.26769 31.7577 5.04414 31.8503 4.87931 32.0152C4.71449 32.18 4.62189 32.4035 4.62189 32.6367C4.62189 32.8697 4.71449 33.0933 4.87931 33.2582C5.04414 33.4229 5.26769 33.5156 5.50079 33.5156H8.07892C9.40548 33.5156 10.4848 32.407 10.4848 31.0453C10.4848 29.6835 9.40548 28.5737 8.07892 28.5737H7.03127C6.85104 28.5646 6.68176 28.4846 6.56034 28.3511C6.43893 28.2177 6.37526 28.0415 6.38322 27.8613V27.7827C6.37526 27.6025 6.43893 27.4264 6.56034 27.2929C6.68176 27.1594 6.85104 27.0794 7.03127 27.0703Z" fill="black"/>
<path d="M22.5821 31.7577H19.3594V26.1914C19.3594 25.9582 19.2667 25.7347 19.102 25.5699C18.9371 25.405 18.7135 25.3125 18.4805 25.3125C18.2473 25.3125 18.0238 25.405 17.859 25.5699C17.6941 25.7347 17.6016 25.9582 17.6016 26.1914V32.6367C17.6016 32.8697 17.6941 33.0933 17.859 33.2582C18.0238 33.4229 18.2473 33.5156 18.4805 33.5156H22.5821C22.8151 33.5156 23.0387 33.4229 23.2036 33.2582C23.3683 33.0933 23.461 32.8697 23.461 32.6367C23.461 32.4035 23.3683 32.18 23.2036 32.0152C23.0387 31.8503 22.8151 31.7577 22.5821 31.7577Z" fill="black"/>
<path d="M29.0695 27.0703C29.3027 27.0703 29.5263 26.9776 29.691 26.8129C29.8559 26.648 29.9484 26.4244 29.9484 26.1914C29.9484 25.9582 29.8559 25.7347 29.691 25.5699C29.5263 25.405 29.3027 25.3125 29.0695 25.3125H24.9679C24.7349 25.3125 24.5113 25.405 24.3465 25.5699C24.1817 25.7347 24.0891 25.9582 24.0891 26.1914V32.6367C24.0891 32.8697 24.1817 33.0933 24.3465 33.2582C24.5113 33.4229 24.7349 33.5156 24.9679 33.5156H29.0695C29.3027 33.5156 29.5263 33.4229 29.691 33.2582C29.8559 33.0933 29.9484 32.8697 29.9484 32.6367C29.9484 32.4035 29.8559 32.18 29.691 32.0152C29.5263 31.8503 29.3027 31.7577 29.0695 31.7577H25.8469V30.2929H29.0695C29.3027 30.2929 29.5263 30.2003 29.691 30.0355C29.8559 29.8707 29.9484 29.6471 29.9484 29.414C29.9484 29.1809 29.8559 28.9574 29.691 28.7925C29.5263 28.6277 29.3027 28.5351 29.0695 28.5351H25.8469V27.0703H29.0695Z" fill="black"/>
<path d="M14.8676 25.8914C14.8061 25.7217 14.6937 25.5751 14.5459 25.4715C14.3981 25.3678 14.2219 25.3123 14.0414 25.3123C13.8609 25.3123 13.6848 25.3678 13.5369 25.4715C13.3892 25.5751 13.2769 25.7217 13.2152 25.8914L10.8715 32.3367C10.8321 32.4452 10.8145 32.5604 10.8196 32.6757C10.8247 32.791 10.8525 32.9042 10.9013 33.0087C10.9502 33.1133 11.0192 33.2072 11.1044 33.2852C11.1895 33.3631 11.2892 33.4234 11.3977 33.4628C11.5062 33.5023 11.6214 33.5199 11.7367 33.5147C11.852 33.5096 11.9652 33.4819 12.0697 33.433C12.1743 33.3841 12.2683 33.3152 12.3462 33.23C12.4241 33.1448 12.4844 33.0452 12.5239 32.9367L12.8825 31.9522H15.2016L15.5532 32.9367C15.5925 33.0452 15.6529 33.1448 15.7309 33.23C15.8088 33.3152 15.9027 33.3841 16.0073 33.433C16.1118 33.4819 16.2251 33.5096 16.3404 33.5147C16.4556 33.5199 16.5708 33.5023 16.6794 33.4628C16.7879 33.4234 16.8875 33.3631 16.9727 33.2852C17.0579 33.2072 17.1267 33.1133 17.1757 33.0087C17.2245 32.9042 17.2523 32.791 17.2574 32.6757C17.2626 32.5604 17.2449 32.4452 17.2055 32.3367L14.8676 25.8914ZM13.5211 30.1945L14.0414 28.7636L14.5617 30.1945H13.5211Z" fill="black"/>
<path d="M59.1211 49.6289H54.1277V26.1914L56.3402 27.4606C56.4744 27.5375 56.6263 27.5776 56.7809 27.577C56.9356 27.5764 57.0872 27.535 57.2207 27.457C57.3541 27.379 57.4648 27.2672 57.5412 27.1328C57.6176 26.9986 57.6574 26.8464 57.6563 26.6918V21.634C57.6562 21.4792 57.6154 21.3272 57.5377 21.1932C57.4602 21.0593 57.3487 20.9482 57.2144 20.8711L36.0457 8.72931C35.9124 8.65328 35.7616 8.61328 35.608 8.61328C35.4545 8.61328 35.3036 8.65328 35.1703 8.72931L16.984 19.159H2.63672C1.9374 19.1596 1.26692 19.4377 0.772549 19.9324C0.278168 20.427 0.000310254 21.0976 0 21.7969V37.0313C0.000620605 37.7304 0.278616 38.4007 0.772962 38.895C1.26731 39.3894 1.9376 39.6673 2.63672 39.6679H14.0626V49.6289H0.878906C0.645806 49.6289 0.422252 49.7215 0.257425 49.8864C0.0925989 50.0512 0 50.2747 0 50.5079C0 50.7409 0.0925989 50.9645 0.257425 51.1294C0.422252 51.2941 0.645806 51.3868 0.878906 51.3868H59.1211C59.3542 51.3868 59.5777 51.2941 59.7426 51.1294C59.9074 50.9645 60 50.7409 60 50.5079C60 50.2747 59.9074 50.0512 59.7426 49.8864C59.5777 49.7215 59.3542 49.6289 59.1211 49.6289ZM52.3699 49.6289H42.4406V34.6289C42.4406 34.3958 42.348 34.1723 42.1832 34.0074C42.0184 33.8426 41.7948 33.75 41.5618 33.75H34.5703V21.7969C34.5697 21.0978 34.2917 20.4275 33.7974 19.9331C33.303 19.4388 32.6327 19.1608 31.9336 19.1602H29.3378L35.6086 15.5636L52.3664 25.173L52.3699 49.6289ZM28.7754 39.6679V49.6289H20.5078V39.6679H28.7754ZM30.5332 39.6679H31.9336C32.6327 39.6673 33.303 39.3894 33.7974 38.895C34.2917 38.4007 34.5697 37.7304 34.5703 37.0313V35.5079H40.6828V49.6289H30.5332V39.6679ZM35.6086 10.5059L55.8984 22.1484V25.1813L36.0457 13.7882C35.9124 13.7123 35.7616 13.6723 35.608 13.6723C35.4545 13.6723 35.3036 13.7123 35.1703 13.7882L25.8047 19.1602H20.5172L35.6086 10.5059ZM1.75781 37.0313V21.7969C1.75781 21.5638 1.85041 21.3402 2.01524 21.1754C2.18006 21.0106 2.40362 20.9179 2.63672 20.9179H31.9336C32.1667 20.9179 32.3903 21.0106 32.555 21.1754C32.7199 21.3402 32.8126 21.5638 32.8126 21.7969V37.0313C32.8126 37.2643 32.7199 37.4879 32.555 37.6528C32.3903 37.8175 32.1667 37.9102 31.9336 37.9102H2.63672C2.40362 37.9102 2.18006 37.8175 2.01524 37.6528C1.85041 37.4879 1.75781 37.2643 1.75781 37.0313ZM15.8203 39.6679H18.75V49.6289H15.8203V39.6679Z" fill="black"/>
</svg>
