<svg width="51" height="50" viewBox="0 0 51 50" fill="none" xmlns="http://www.w3.org/2000/svg">
<g clip-path="url(#clip0_239_373)">
<mask id="mask0_239_373" style="mask-type:luminance" maskUnits="userSpaceOnUse" x="0" y="0" width="51" height="50">
<path d="M50.5 0H0.5V50H50.5V0Z" fill="white"/>
</mask>
<g mask="url(#mask0_239_373)">
<mask id="mask1_239_373" style="mask-type:luminance" maskUnits="userSpaceOnUse" x="0" y="0" width="51" height="50">
<path d="M50.5 0H0.5V50H50.5V0Z" fill="white"/>
</mask>
<g mask="url(#mask1_239_373)">
<path d="M15.9943 7.49536C16.9157 5.81167 17.6434 4.48189 16.0248 2.04966C15.8157 1.7353 15.9009 1.31099 16.2153 1.10181C16.5296 0.892632 16.9539 0.977886 17.1631 1.29224C19.2397 4.41284 18.1527 6.39917 17.1936 8.15171C16.2722 9.8353 15.5445 11.1651 17.1631 13.5975C17.3723 13.9117 17.287 14.336 16.9727 14.5453C16.8563 14.6228 16.7246 14.6599 16.5946 14.6599C16.3735 14.6599 16.1566 14.5528 16.0248 14.3549C13.9482 11.2342 15.0352 9.2479 15.9943 7.49536ZM9.31644 14.2465C9.44818 14.4443 9.66507 14.5515 9.88617 14.5515C10.0162 14.5515 10.1478 14.5144 10.2643 14.4369C10.5785 14.2277 10.6638 13.8034 10.4547 13.4891C8.83617 11.0568 9.5639 9.727 10.4853 8.04331C11.4443 6.29087 12.5313 4.30454 10.4547 1.18384C10.2454 0.869585 9.82123 0.784331 9.50687 0.993413C9.19261 1.20259 9.10736 1.62691 9.31644 1.94126C10.935 4.37349 10.2073 5.70337 9.28587 7.38696C8.32689 9.1396 7.23988 11.1259 9.31644 14.2465ZM3.55589 14.5452C3.87015 14.336 3.9554 13.9117 3.74632 13.5974C2.12777 11.165 2.8555 9.8353 3.77689 8.15161C4.73597 6.39917 5.82288 4.41284 3.74632 1.29214C3.53714 0.977788 3.11292 0.892632 2.79847 1.10171C2.48421 1.31089 2.39896 1.73521 2.60804 2.04956C4.2266 4.48179 3.49886 5.81167 2.57757 7.49527C1.61849 9.2478 0.53148 11.2341 2.60804 14.3547C2.73978 14.5525 2.95667 14.6597 3.17777 14.6597C3.30785 14.6598 3.43949 14.6228 3.55589 14.5452ZM48.422 8.04341C49.381 6.29097 50.468 4.30464 48.3914 1.18394C48.1823 0.869683 47.7579 0.784429 47.4436 0.993511C47.1293 1.20269 47.0441 1.627 47.2532 1.94136C48.8717 4.37359 48.144 5.70347 47.2226 7.38706C46.2635 9.1396 45.1765 11.1259 47.2532 14.2465C47.3849 14.4443 47.6018 14.5515 47.8229 14.5515C47.953 14.5515 48.0845 14.5144 48.201 14.4369C48.5153 14.2277 48.6005 13.8034 48.3914 13.4891C46.7728 11.0568 47.5006 9.7271 48.422 8.04341ZM40.5449 14.2465C40.6766 14.4443 40.8935 14.5515 41.1146 14.5515C41.2447 14.5515 41.3762 14.5144 41.4927 14.4369C41.807 14.2277 41.8922 13.8034 41.6831 13.4891C40.0646 11.0568 40.7923 9.727 41.7137 8.04341C42.6727 6.29087 43.7598 4.30454 41.6831 1.18394C41.474 0.869683 41.0497 0.784429 40.7353 0.993511C40.421 1.20269 40.3358 1.627 40.5449 1.94136C42.1634 4.37359 41.4357 5.70347 40.5143 7.38706C39.5552 9.1396 38.4682 11.1259 40.5449 14.2465ZM47.8472 28.9235V41.988C47.8472 44.0692 45.4841 45.8728 41.0134 47.2037C36.8602 48.4401 31.3506 49.1212 25.4997 49.1212C19.6489 49.1212 14.1393 48.4401 9.98597 47.2037C5.51527 45.8728 3.15218 44.0691 3.15218 41.988V28.9235C3.15218 26.7765 5.64867 24.936 10.3715 23.5971L14.5696 20.4862C15.0503 20.1298 16.7733 19.6392 19.9934 18.8016C20.4673 18.6783 20.8416 18.581 21.0564 18.5208C22.3712 18.1575 30.7876 18.9454 31.6549 19.17L36.9596 20.5441C37.6483 20.7226 38.2096 21.2269 38.4612 21.8931L38.9408 23.1641C44.6873 24.4927 47.8472 26.5319 47.8472 28.9235ZM9.55335 25.905C9.18792 26.1759 9.11107 26.6939 9.38216 27.0595C9.51351 27.2365 9.70589 27.352 9.92396 27.3843C10.1419 27.4169 10.3597 27.3622 10.5368 27.2309L16.1428 23.0767C16.2098 23.0271 16.2853 22.99 16.3656 22.9676L21.3011 21.5865C21.5171 21.5261 21.7491 21.5756 21.9217 21.7188C22.0944 21.8619 22.1858 22.0808 22.1663 22.3043C21.9883 24.3475 21.811 26.3908 21.6336 28.4341L21.5322 29.6034C23.056 29.7192 24.6406 29.7778 26.2524 29.7778C27.4118 29.7778 28.5652 29.7473 29.6892 29.6865L29.7604 28.8663C29.9371 26.8299 30.1139 24.7934 30.2913 22.757C30.3088 22.5567 30.4136 22.3742 30.5779 22.2581C30.742 22.1421 30.9491 22.1042 31.1438 22.1546L35.4441 23.2686C35.6592 23.3243 35.8339 23.4812 35.9122 23.6892L37.618 28.2131C37.6959 28.4199 37.8495 28.5839 38.0506 28.6749C38.2518 28.766 38.4763 28.7732 38.6827 28.6955C39.1092 28.5349 39.3255 28.0573 39.165 27.6309L37.1823 22.376C37.0874 22.1249 36.876 21.9348 36.6168 21.8677L31.3122 20.4936C30.4468 20.2694 22.319 19.5998 21.4225 19.8381C21.1981 19.9009 20.8184 19.9996 20.3377 20.1247C19.1056 20.4452 15.8326 21.2967 15.3763 21.5899L9.55335 25.905ZM39.1646 29.9749C39.1549 29.9785 39.1451 29.9809 39.1354 29.9843C40.188 29.6871 41.1977 29.3368 42.1368 28.9237C41.6199 28.6964 41.0606 28.4896 40.5487 28.316C40.4138 29.0479 39.9103 29.694 39.1646 29.9749ZM8.85619 28.9204L8.86058 28.9224L8.86263 28.9169V28.9304C8.86185 28.9273 8.85853 28.9223 8.85619 28.9204ZM8.86273 28.9232C13.7846 31.0869 20.6254 31.5405 25.4997 31.5405C29.3491 31.5405 34.4245 31.2567 38.8104 30.0736C38.3661 30.161 37.9072 30.1108 37.4867 29.9203C36.9529 29.6786 36.5452 29.2435 36.3387 28.6951L35.7452 27.1212C34.3562 26.877 32.8777 26.685 31.334 26.5501C31.2636 27.3615 31.193 28.173 31.1226 28.9844L31.0003 30.3933C30.9711 30.73 30.7001 30.9948 30.3628 31.0163C29.0263 31.1017 27.6434 31.1448 26.2525 31.1448C24.3592 31.1448 22.5017 31.0655 20.7317 30.9092C20.356 30.876 20.0782 30.5449 20.1108 30.1691L20.2716 28.3157C20.3244 27.7066 20.3775 27.0977 20.4303 26.4886C17.5682 26.7016 14.9376 27.1001 12.6022 27.6764C12.4399 27.7163 12.2379 27.7701 12.0248 27.8297L11.3509 28.3291C10.8807 28.6778 10.3028 28.8228 9.72328 28.7366C9.63197 28.723 9.5431 28.7022 9.4556 28.6778C9.24378 28.7608 9.04505 28.8431 8.86273 28.9232ZM20.7186 23.1692L16.8554 24.2502L14.729 25.8259C16.5423 25.4949 18.4896 25.2546 20.5501 25.1087C20.6063 24.4622 20.6623 23.8157 20.7186 23.1692ZM35.1874 25.6419L34.7581 24.5032L31.5833 23.6809C31.5396 24.1833 31.496 24.6858 31.4524 25.1883C32.7451 25.3011 33.9947 25.4532 35.1874 25.6419ZM46.48 41.988V31.5064C45.3419 32.5083 43.5056 33.3973 41.0134 34.1393C36.8602 35.3757 31.3506 36.0567 25.4997 36.0567C19.6489 36.0567 14.1393 35.3757 9.98597 34.1393C7.49378 33.3973 5.65746 32.5083 4.51937 31.5064V41.988C4.51937 43.3416 6.70873 44.8017 10.376 45.8934C14.4063 47.0932 19.7773 47.754 25.4997 47.754C31.2222 47.754 36.5932 47.0932 40.6234 45.8934C44.2907 44.8017 46.48 43.3416 46.48 41.988ZM46.48 28.9235C46.48 27.4304 43.7909 25.8241 39.5261 24.7154L40.3131 26.8012C41.003 27.0178 41.8904 27.3213 42.6879 27.6722C43.1917 27.8939 43.5045 28.3734 43.5045 28.9235C43.5045 29.4739 43.1915 29.9534 42.6879 30.1749C37.5541 32.4335 30.5073 32.9076 25.4997 32.9076C20.4922 32.9076 13.4453 32.4335 8.31156 30.1749C7.80794 29.9533 7.49496 29.4738 7.49496 28.9235C7.49496 28.419 7.75853 27.9746 8.19037 27.7333C7.83148 27.1629 7.76634 26.4797 7.96751 25.8743C5.76732 26.8125 4.51947 27.8913 4.51947 28.9235C4.51947 30.2771 6.70882 31.7372 10.3761 32.8289C14.4064 34.0287 19.7774 34.6896 25.4997 34.6896C31.2221 34.6896 36.5932 34.0287 40.6234 32.8289C44.2907 31.7371 46.48 30.2771 46.48 28.9235ZM42.1433 28.9267L42.1389 28.9247L42.1369 28.9303V28.9168C42.1376 28.9197 42.1409 28.9248 42.1433 28.9267ZM22.3095 13.9327C22.3095 11.5428 24.2538 9.59849 26.6438 9.59849C29.0337 9.59849 30.9782 11.5428 30.9782 13.9327C30.9782 16.3227 29.0337 18.2671 26.6438 18.2671C24.2538 18.2671 22.3095 16.3227 22.3095 13.9327ZM23.6767 13.9327C23.6767 15.5688 25.0077 16.8999 26.6438 16.8999C28.2799 16.8999 29.611 15.5688 29.611 13.9327C29.611 12.2967 28.2799 10.9656 26.6438 10.9656C25.0077 10.9656 23.6767 12.2967 23.6767 13.9327Z" fill="white"/>
</g>
</g>
</g>
<defs>
<clipPath id="clip0_239_373">
<rect width="50" height="50" fill="white" transform="translate(0.5)"/>
</clipPath>
</defs>
</svg>
