<svg width="60" height="60" viewBox="0 0 60 60" fill="none" xmlns="http://www.w3.org/2000/svg">
<g clip-path="url(#clip0_220_173)">
<mask id="mask0_220_173" style="mask-type:luminance" maskUnits="userSpaceOnUse" x="0" y="0" width="60" height="60">
<path d="M60 0H0V60H60V0Z" fill="white"/>
</mask>
<g mask="url(#mask0_220_173)">
<path d="M54.375 45.9375H50.625V42.1248C50.9358 42.1654 51.249 42.1864 51.5626 42.1875C53.5517 42.1875 55.4593 41.3973 56.8658 39.9908C58.2724 38.5843 59.0626 36.6766 59.0626 34.6875C59.0626 32.6984 58.2724 30.7908 56.8658 29.3842C55.4593 27.9777 53.5517 27.1875 51.5626 27.1875C51.249 27.1886 50.9358 27.2096 50.625 27.2504V19.7682L52.8928 21.3882C53.0518 21.5016 53.2422 21.5625 53.4374 21.5625C53.5136 21.5623 53.5895 21.5532 53.6634 21.5354C53.795 21.5028 53.918 21.4419 54.024 21.3571C54.1298 21.2722 54.216 21.1654 54.2766 21.0441L56.1516 17.2941C56.2523 17.0925 56.2769 16.8614 56.2212 16.6431C56.1654 16.4248 56.0328 16.2339 55.8478 16.1054L34.2853 1.10536C34.1282 0.996077 33.9414 0.9375 33.75 0.9375C33.5586 0.9375 33.3718 0.996077 33.2147 1.10536L11.6522 16.1054C11.4672 16.2339 11.3346 16.4248 11.2788 16.6431C11.2231 16.8614 11.2478 17.0925 11.3484 17.2941L13.2234 21.0441C13.284 21.1653 13.37 21.2721 13.4759 21.3568C13.5816 21.4416 13.7045 21.5024 13.836 21.5352C13.9675 21.5678 14.1046 21.5716 14.2378 21.5463C14.3708 21.5209 14.497 21.467 14.6072 21.3882L16.875 19.7691V38.4375H15.9374V37.5001C15.9374 37.2514 15.8387 37.013 15.6629 36.8371C15.4871 36.6613 15.2486 36.5625 15 36.5625H1.875C1.62636 36.5625 1.38791 36.6613 1.21208 36.8371C1.03627 37.013 0.9375 37.2514 0.9375 37.5001V58.1251C0.9375 58.3737 1.03627 58.6122 1.21208 58.788C1.38791 58.9638 1.62636 59.0625 1.875 59.0625H9.375C9.62364 59.0625 9.86209 58.9638 10.0379 58.788C10.2137 58.6122 10.3125 58.3737 10.3125 58.1251V57.1875H15C15.2486 57.1875 15.4871 57.0888 15.6629 56.913C15.8387 56.7372 15.9374 56.4987 15.9374 56.2501V55.3125H22.2187L27.6074 58.9051C27.7608 59.0073 27.9408 59.062 28.125 59.0625C28.1924 59.0623 28.2596 59.0551 28.3256 59.041L58.3256 52.4785C58.5344 52.4328 58.7214 52.317 58.8554 52.1504C58.9895 51.9837 59.0626 51.7764 59.0626 51.5625V50.6251C59.061 49.3824 58.5667 48.1909 57.688 47.3121C56.8092 46.4334 55.6177 45.9391 54.375 45.9375ZM8.4375 57.1875H2.8125V38.4375H8.4375V57.1875ZM14.0626 55.3125H10.3125V38.4375H14.0626V55.3125ZM48.75 45.9375H42.1874V38.4375H45.0656C45.9072 39.8798 47.2028 41.0026 48.75 41.6307V45.9375ZM32.7187 45.9375C32.616 45.5191 32.4176 45.1302 32.1394 44.8014L27.1874 39.0291V29.0625H29.6906C30.955 29.6794 32.3432 30.0001 33.75 30.0001C35.1568 30.0001 36.545 29.6794 37.8094 29.0625H40.3126V30.9375H39.375C39.1264 30.9376 38.8879 31.0364 38.7122 31.2122L37.5 32.4244L36.2878 31.2122C36.1121 31.0364 35.8736 30.9376 35.625 30.9375H32.8126C32.5639 30.9376 32.3255 31.0364 32.1497 31.2122L29.3372 34.0248C29.1613 34.2006 29.0626 34.4389 29.0626 34.6875V37.5001C29.0626 37.7487 29.1613 37.9872 29.3371 38.163C29.5129 38.3388 29.7514 38.4375 30 38.4375H40.3126V45.9375H32.7187ZM33.75 28.1251C32.2667 28.1251 30.8166 27.6852 29.5832 26.8611C28.3499 26.037 27.3886 24.8656 26.821 23.4951C26.2532 22.1247 26.1047 20.6167 26.3941 19.1619C26.6834 17.707 27.3978 16.3706 28.4467 15.3218C29.4956 14.2729 30.832 13.5585 32.2868 13.2692C33.7417 12.9798 35.2496 13.1283 36.6202 13.6959C37.9906 14.2636 39.1619 15.225 39.986 16.4583C40.8101 17.6917 41.25 19.1416 41.25 20.6251C41.2477 22.6135 40.4569 24.5198 39.0509 25.9258C37.6448 27.3319 35.7384 28.1228 33.75 28.1251ZM57.1874 34.6875C57.1878 35.965 56.7534 37.2045 55.9555 38.2022C55.1576 39.1999 54.044 39.8962 52.7977 40.1767C51.5515 40.4572 50.2469 40.3052 49.0985 39.7456C47.9501 39.1861 47.0264 38.2522 46.4794 37.0978C46.4035 36.9381 46.284 36.8031 46.1347 36.7084C45.9854 36.6138 45.8124 36.5631 45.6356 36.5625H30.9374V35.0757L33.2006 32.8125H35.2369L36.8372 34.4128C37.013 34.5886 37.2514 34.6874 37.5 34.6874C37.7486 34.6874 37.987 34.5886 38.1628 34.4128L39.7631 32.8125H45.6319C45.8087 32.8119 45.9817 32.7614 46.131 32.6667C46.2803 32.5719 46.3998 32.4369 46.4756 32.2772C47.0215 31.1208 47.9452 30.1846 49.0944 29.6235C50.2435 29.0624 51.5496 28.9096 52.7974 29.1903C54.045 29.4711 55.1598 30.1686 55.9579 31.1679C56.7559 32.1673 57.1896 33.4087 57.1874 34.6875ZM14.4103 19.2244L13.3884 17.1816L33.75 3.01692L54.1116 17.1816L53.0897 19.2244L34.2947 5.79942C34.1357 5.68595 33.9454 5.62495 33.75 5.62495C33.5546 5.62495 33.3643 5.68595 33.2053 5.79942L14.4103 19.2244ZM18.75 18.4294L33.75 7.71473L48.75 18.4294V27.7501C47.2034 28.376 45.908 29.4969 45.0666 30.9375H42.1874V28.1251C42.1874 27.8764 42.0887 27.638 41.9129 27.4621C41.7371 27.2863 41.4986 27.1875 41.25 27.1875H40.4334C41.7292 25.8704 42.6067 24.1998 42.9559 22.3854C43.3052 20.5711 43.1106 18.694 42.3966 16.9899C41.6825 15.2859 40.4808 13.8308 38.9424 12.8074C37.4041 11.7841 35.5976 11.2382 33.75 11.2382C31.9024 11.2382 30.0959 11.7841 28.5576 12.8074C27.0192 13.8308 25.8175 15.2859 25.1034 16.9899C24.3894 18.694 24.1948 20.5711 24.5441 22.3854C24.8933 24.1998 25.7708 25.8704 27.0666 27.1875H26.25C26.0014 27.1875 25.7629 27.2863 25.5871 27.4621C25.4113 27.638 25.3126 27.8764 25.3126 28.1251V38.4375H18.75V18.4294ZM57.1874 50.8125L28.3126 57.1238L23.0194 53.5951C22.8654 53.4928 22.6848 53.438 22.5 53.4375H15.9374V40.3125H25.8187L30.7124 46.021C30.8574 46.1914 30.9371 46.4077 30.9374 46.6314V47.8125C30.9374 48.0612 30.8387 48.2996 30.6629 48.4755C30.4871 48.6513 30.2486 48.7501 30 48.7501H28.9013C28.6528 48.7491 28.4147 48.6504 28.2384 48.4754L24.1003 44.3372L22.7747 45.6628L26.9128 49.801C27.1733 50.0631 27.4831 50.2708 27.8244 50.4123C28.1658 50.5538 28.5318 50.6262 28.9013 50.6251H30C30.7459 50.6251 31.4612 50.3287 31.9888 49.8013C32.5162 49.2739 32.8126 48.5584 32.8126 47.8125H54.375C55.1209 47.8125 55.8362 48.1089 56.3638 48.6363C56.8912 49.1637 57.1874 49.8792 57.1874 50.6251V50.8125Z" fill="black"/>
<path d="M53.4374 36.5627C54.473 36.5627 55.3126 35.7232 55.3126 34.6876C55.3126 33.6521 54.473 32.8127 53.4374 32.8127C52.402 32.8127 51.5626 33.6521 51.5626 34.6876C51.5626 35.7232 52.402 36.5627 53.4374 36.5627Z" fill="black"/>
<path d="M34.6874 15.0002V14.0627H32.8126V15.0002C32.0665 15.0002 31.3512 15.2965 30.8238 15.824C30.2963 16.3514 30 17.0667 30 17.8127V18.7502C30 19.4961 30.2963 20.2114 30.8238 20.7389C31.3512 21.2663 32.0665 21.5626 32.8126 21.5627V24.3752C32.5638 24.3752 32.3254 24.2764 32.1496 24.1006C31.9738 23.9248 31.875 23.6864 31.875 23.4376V22.5002H30V23.4376C30 24.1837 30.2963 24.899 30.8238 25.4264C31.3512 25.9539 32.0665 26.2502 32.8126 26.2502V27.1876H34.6874V26.2502C35.4335 26.2502 36.1488 25.9539 36.6762 25.4264C37.2037 24.899 37.5 24.1837 37.5 23.4376V22.5002C37.5 21.7543 37.2037 21.0389 36.6762 20.5114C36.1488 19.984 35.4335 19.6877 34.6874 19.6876V16.8752C34.9362 16.8752 35.1746 16.9739 35.3504 17.1497C35.5262 17.3255 35.625 17.564 35.625 17.8127V18.7502H37.5V17.8127C37.5 17.0667 37.2037 16.3514 36.6762 15.824C36.1488 15.2965 35.4335 15.0002 34.6874 15.0002ZM35.625 22.5002V23.4376C35.625 23.6864 35.5262 23.9248 35.3504 24.1006C35.1746 24.2764 34.9362 24.3752 34.6874 24.3752V21.5627C34.9362 21.5627 35.1746 21.6615 35.3504 21.8373C35.5262 22.0131 35.625 22.2515 35.625 22.5002ZM32.8126 19.6876C32.5638 19.6876 32.3254 19.5889 32.1496 19.4131C31.9738 19.2373 31.875 18.9988 31.875 18.7502V17.8127C31.875 17.564 31.9738 17.3255 32.1496 17.1497C32.3254 16.9739 32.5638 16.8752 32.8126 16.8752V19.6876Z" fill="black"/>
<path d="M18.4774 2.15015L17.1516 3.47598L20.9016 7.22607L22.2275 5.90024L18.4774 2.15015Z" fill="black"/>
<path d="M17.8126 8.4375H12.1874V10.3125H17.8126V8.4375Z" fill="black"/>
<path d="M49.0266 2.14941L45.2766 5.89951L46.6024 7.22533L50.3525 3.47523L49.0266 2.14941Z" fill="black"/>
<path d="M55.3126 8.4375H49.6874V10.3125H55.3126V8.4375Z" fill="black"/>
</g>
</g>
<defs>
<clipPath id="clip0_220_173">
<rect width="60" height="60" fill="white"/>
</clipPath>
</defs>
</svg>
