<svg width="51" height="50" viewBox="0 0 51 50" fill="none" xmlns="http://www.w3.org/2000/svg">
<g clip-path="url(#clip0_239_383)">
<mask id="mask0_239_383" style="mask-type:luminance" maskUnits="userSpaceOnUse" x="0" y="0" width="51" height="50">
<path d="M50.5 0H0.5V50H50.5V0Z" fill="white"/>
</mask>
<g mask="url(#mask0_239_383)">
<mask id="mask1_239_383" style="mask-type:luminance" maskUnits="userSpaceOnUse" x="0" y="0" width="51" height="50">
<path d="M50.5 0H0.5V50H50.5V0Z" fill="white"/>
</mask>
<g mask="url(#mask1_239_383)">
<path d="M47.375 10.1562H46.5938V2.34375C46.5938 1.48203 45.893 0.78125 45.0312 0.78125H38.7812C37.9195 0.78125 37.2188 1.48203 37.2188 2.34375V10.1562H35.5125C35.6 9.91094 35.6562 9.65 35.6562 9.375C35.6562 8.77266 35.4211 8.22813 35.0469 7.8125C35.4211 7.39687 35.6562 6.85234 35.6562 6.25V3.125C35.6562 1.83281 34.6047 0.78125 33.3125 0.78125H19.25C17.9578 0.78125 16.9062 1.83281 16.9062 3.125V6.25C16.9062 6.85234 17.1414 7.39687 17.5156 7.8125C17.1406 8.22813 16.9062 8.77266 16.9062 9.375C16.9062 9.65 16.9625 9.91094 17.05 10.1562H16.125C14.8328 10.1562 13.7812 11.2078 13.7812 12.5V19.5711C13.5219 19.5539 13.2641 19.5312 13 19.5312C7.90234 19.5312 3.35313 22.8898 1.82813 27.7281C1.49609 28.0156 1.28125 28.4344 1.28125 28.9062V33.5938C1.28125 34.0656 1.49609 34.4852 1.82891 34.7719C3.35391 39.6102 7.90234 42.9688 13 42.9688C13.2641 42.9688 13.5219 42.9461 13.7812 42.9289V46.875C13.7812 48.1672 14.8328 49.2188 16.125 49.2188H47.375C48.6672 49.2188 49.7188 48.1672 49.7188 46.875V12.5C49.7188 11.2078 48.6672 10.1562 47.375 10.1562ZM38.7812 2.34375H45.0312V10.1562H43.7922L40.8961 7.26016L39.7914 8.36484L41.5828 10.1562H38.7812V2.34375ZM18.4688 3.125C18.4688 2.69453 18.8188 2.34375 19.25 2.34375H33.3125C33.7437 2.34375 34.0938 2.69453 34.0938 3.125V6.25C34.0938 6.68047 33.7437 7.03125 33.3125 7.03125H19.25C18.8188 7.03125 18.4688 6.68047 18.4688 6.25V3.125ZM18.4688 9.375C18.4688 8.94453 18.8188 8.59375 19.25 8.59375H33.3125C33.7437 8.59375 34.0938 8.94453 34.0938 9.375C34.0938 9.80547 33.7437 10.1562 33.3125 10.1562H19.25C18.8188 10.1562 18.4688 9.80547 18.4688 9.375ZM16.125 11.7188H47.375C47.8062 11.7188 48.1562 12.0695 48.1562 12.5V16.4062H15.3438V12.5C15.3438 12.0695 15.6938 11.7188 16.125 11.7188ZM4.40703 31.2648L4.40781 33.5938H2.84375V28.9062H4.40625L4.40703 31.2352C4.40703 31.2398 4.40625 31.2453 4.40625 31.25C4.40625 31.2555 4.40703 31.2602 4.40703 31.2648ZM3.63125 35.1562H4.40625C4.7125 35.1562 4.99609 35.0648 5.23672 34.9117C6.61563 37.8219 9.57187 39.8438 13 39.8438C17.7383 39.8438 21.5938 35.9883 21.5938 31.25C21.5938 26.5117 17.7383 22.6562 13 22.6562C9.57187 22.6562 6.61563 24.6781 5.23672 27.5883C4.99609 27.4352 4.7125 27.3438 4.40625 27.3438H3.63125C5.19062 23.6156 8.88828 21.0938 13 21.0938C18.6 21.0938 23.1562 25.65 23.1562 31.25C23.1562 36.85 18.6 41.4062 13 41.4062C8.88828 41.4062 5.19062 38.8844 3.63125 35.1562ZM13 24.2188C16.8773 24.2188 20.0312 27.3727 20.0312 31.25C20.0312 35.1273 16.8773 38.2812 13 38.2812C9.12266 38.2812 5.96875 35.1273 5.96875 31.25C5.96875 27.3727 9.12266 24.2188 13 24.2188ZM36.4172 43.525L35.6516 36.6328L34.0984 36.8055L34.8273 43.3641L33.1813 44.4617C32.9227 44.6344 32.5312 44.4266 32.5312 44.1133V35.1562H30.9688V42.4898C29.7461 42.05 28.3977 42.0398 27.1625 42.482L27.732 35.0781C27.7883 34.3453 28.1062 33.6555 28.6258 33.1359C29.0437 32.7195 29.7703 32.7195 30.1883 33.1359L30.2266 33.1742L29.1 33.657L29.7148 35.093L34.2844 33.1352C34.782 32.9211 35.3117 32.8125 35.8547 32.8125C36.1156 32.8125 36.3766 32.8742 36.6102 32.9914C37.0625 33.2172 37.3867 33.6297 37.5008 34.1219L39.5352 42.9375C39.5531 43.018 39.5625 43.0992 39.5625 43.1812C39.5625 43.6516 39.2625 44.068 38.8164 44.2164L38.0594 44.468C37.5023 44.6578 36.85 44.3898 36.5828 43.8547L36.4172 43.525ZM38.5984 32.7914C38.2852 32.2891 37.8531 31.8656 37.3094 31.593C36.8594 31.3687 36.3563 31.25 35.8547 31.25C35.0984 31.25 34.3625 31.4008 33.6672 31.6992L31.7727 32.5109L31.2922 32.0312C30.2852 31.0242 28.5273 31.0242 27.5203 32.0312C26.7375 32.8141 26.2594 33.8539 26.1734 34.9578L26.1336 35.475C25.2242 34.268 24.7188 32.7945 24.7188 31.25C24.7188 27.3727 27.8727 24.2188 31.75 24.2188C35.6273 24.2188 38.7812 27.3727 38.7812 31.25C38.7812 31.7711 38.7117 32.2867 38.5984 32.7914ZM25.9711 37.5937L25.825 39.493C24.8273 38.7742 23.9773 37.8719 23.2953 36.8437C23.6008 36.2836 23.8516 35.6906 24.0633 35.0805C24.5312 36.0195 25.1766 36.8695 25.9711 37.5937ZM39.357 35.2188C39.9945 33.9977 40.3438 32.6367 40.3438 31.25C40.3438 26.5117 36.4883 22.6562 31.75 22.6562C28.3859 22.6562 25.4758 24.6039 24.0656 27.4258C23.8531 26.8125 23.6016 26.2172 23.2945 25.6555C25.1836 22.7984 28.3039 21.0938 31.75 21.0938C37.35 21.0938 41.9062 25.65 41.9062 31.25C41.9062 33.4898 41.1781 35.607 39.8508 37.3586L39.357 35.2188ZM47.375 47.6562H16.125C15.6938 47.6562 15.3438 47.3062 15.3438 46.875V42.7328C18.207 42.1492 20.6836 40.5109 22.375 38.2516C23.2766 39.457 24.4008 40.4734 25.6891 41.2555L25.3961 45.0672L27.2367 44.1453C28.4234 43.5516 29.8219 43.5867 30.9773 44.2055C31.0273 45.2539 31.8891 46.0938 32.9492 46.0938C33.3414 46.0938 33.7211 45.9789 34.0477 45.7609L35.3734 44.8766C35.8875 45.6359 36.7398 46.0938 37.675 46.0938C37.9766 46.0938 38.2734 46.0453 38.5555 45.95L39.3109 45.6984C40.3953 45.3367 41.125 44.325 41.125 43.1812C41.125 42.9805 41.1023 42.7789 41.057 42.5852L40.2883 39.2555C42.3359 37.0766 43.4688 34.257 43.4688 31.25C43.4688 24.7883 38.2117 19.5312 31.75 19.5312C27.9984 19.5312 24.5727 21.2727 22.3664 24.2367C20.675 21.9836 18.2023 20.35 15.3438 19.7672V17.9688H48.1562V46.875C48.1562 47.3062 47.8062 47.6562 47.375 47.6562Z" fill="white"/>
<path d="M22.375 3.90625H32.5312V5.46875H22.375V3.90625Z" fill="white"/>
<path d="M39.7871 4.46259L40.8918 3.35791L44.7974 7.26353L43.6927 8.36822L39.7871 4.46259Z" fill="white"/>
<path d="M18.4688 13.2812H20.0312V14.8438H18.4688V13.2812Z" fill="white"/>
<path d="M21.5938 13.2812H23.1562V14.8438H21.5938V13.2812Z" fill="white"/>
<path d="M24.7188 13.2812H26.2812V14.8438H24.7188V13.2812Z" fill="white"/>
<path d="M30.9688 13.2812H35.6562V14.8438H30.9688V13.2812Z" fill="white"/>
<path d="M37.2188 13.2812H43.4688V14.8438H37.2188V13.2812Z" fill="white"/>
</g>
</g>
</g>
<defs>
<clipPath id="clip0_239_383">
<rect width="50" height="50" fill="white" transform="translate(0.5)"/>
</clipPath>
</defs>
</svg>
