<svg width="33" height="34" viewBox="0 0 33 34" fill="none" xmlns="http://www.w3.org/2000/svg">
<path d="M31.8504 16.0506H28.1139C27.989 15.6645 27.6264 15.3843 27.1993 15.3843H20.8902C20.463 15.3843 20.1004 15.6645 19.9755 16.0506H3.18056V5.62244C3.18056 4.58662 4.02329 3.7439 5.05911 3.7439C5.94063 3.7439 6.68197 4.3544 6.88339 5.17469C6.16635 5.40962 5.64686 6.08483 5.64686 6.87947V7.87849H5.41051C5.14354 7.87849 4.92711 8.09493 4.92711 8.36189C4.92711 8.62885 5.14354 8.84529 5.41051 8.84529H9.47105C9.73801 8.84529 9.95444 8.62885 9.95444 8.36189C9.95444 8.09493 9.73801 7.87849 9.47105 7.87849H9.2347V6.87947C9.2347 6.03539 8.64856 5.32609 7.86204 5.13602C7.63046 3.79817 6.46219 2.7771 5.05911 2.7771C3.49019 2.7771 2.21377 4.05353 2.21377 5.62244V16.0507H1.14958C0.515689 16.0506 0 16.5664 0 17.2003V17.8972C0 18.5311 0.515689 19.0468 1.14958 19.0468H1.4217V20.2043C1.4217 22.8026 2.5466 25.143 4.33479 26.7644L3.05559 29.2563C2.8911 29.5768 2.8612 29.9422 2.97154 30.2851C3.08188 30.6281 3.31907 30.9076 3.6396 31.0721C3.83798 31.1739 4.04978 31.2228 4.25873 31.2228C4.67781 31.2228 5.08508 31.0258 5.34754 30.6637L6.97349 28.4202C7.99494 28.8324 9.10998 29.06 10.2773 29.06H22.7226C23.8687 29.06 24.9862 28.8424 26.0283 28.4227L27.6524 30.6637C27.9149 31.0259 28.3221 31.2228 28.7412 31.2228C28.9501 31.2228 29.162 31.1739 29.3603 31.0721C29.6809 30.9076 29.9181 30.6281 30.0284 30.2851C30.1387 29.9422 30.1088 29.5768 29.9444 29.2563L28.6669 26.7678C29.6928 25.8401 30.4868 24.6897 30.9883 23.3888C31.0843 23.1397 30.9602 22.8599 30.7111 22.7639C30.4621 22.6679 30.1822 22.7919 30.0862 23.041C29.5962 24.3121 28.793 25.4227 27.7465 26.2864C27.7017 26.3233 27.6561 26.3593 27.6106 26.3953C27.581 26.4187 27.5515 26.4423 27.5216 26.4652C27.4824 26.4952 27.4429 26.5246 27.4032 26.5538C27.3666 26.5809 27.3297 26.6078 27.2924 26.6343C27.2549 26.661 27.2172 26.6874 27.1793 26.7134C27.139 26.741 27.0984 26.7681 27.0578 26.795C27.0187 26.8207 26.9796 26.8464 26.9401 26.8715C26.9024 26.8954 26.8644 26.9185 26.8264 26.9417C26.7831 26.9681 26.74 26.9948 26.6963 27.0204C26.6686 27.0366 26.6404 27.0519 26.6125 27.0678C26.4244 27.1746 26.232 27.274 26.0356 27.365C25.0047 27.8432 23.8804 28.0931 22.7228 28.0931H10.2774C5.92742 28.0931 2.38856 24.5542 2.38856 20.2042V19.0467H4.7373C5.00426 19.0467 5.22069 18.8303 5.22069 18.5633C5.22069 18.2964 5.00426 18.0799 4.7373 18.0799H1.14958C1.04878 18.0799 0.966795 17.998 0.966795 17.8972V17.2002C0.966795 17.0994 1.04878 17.0174 1.14958 17.0174H19.9287V18.08H7.02396C6.757 18.08 6.54056 18.2964 6.54056 18.5634C6.54056 18.8304 6.757 19.0468 7.02396 19.0468H19.9288V21.9156C19.9288 22.332 20.2676 22.6709 20.6841 22.6709H27.4054C27.8218 22.6709 28.1606 22.332 28.1606 21.9156V19.0468H30.6114V20.2043C30.6114 20.4603 30.5991 20.7186 30.5746 20.9719C30.549 21.2376 30.7436 21.4738 31.0094 21.4995C31.0252 21.501 31.0408 21.5017 31.0564 21.5017C31.3024 21.5017 31.5129 21.3147 31.537 21.0648C31.5644 20.7807 31.5783 20.4913 31.5783 20.2044V19.0469H31.8504C32.4843 19.0469 33 18.5312 33 17.8973V17.2004C32.9999 16.5664 32.4842 16.0506 31.8504 16.0506ZM7.44078 6.05235C7.89685 6.05235 8.2679 6.4234 8.2679 6.87947V7.87849H6.61359V6.87947C6.61365 6.42334 6.98471 6.05235 7.44078 6.05235ZM27.0895 27.9086C27.1204 27.891 27.1517 27.874 27.1824 27.8561C27.2309 27.8277 27.2788 27.7982 27.3268 27.7689C27.3698 27.7427 27.413 27.7164 27.4556 27.6894C27.4992 27.6618 27.5424 27.6334 27.5856 27.6049C27.632 27.5744 27.6781 27.5436 27.7238 27.5123C27.7455 27.4974 27.7677 27.4834 27.7894 27.4682C27.809 27.4545 27.828 27.4399 27.8476 27.4259C27.8648 27.4138 27.8824 27.4021 27.8995 27.3898L29.0842 29.6979C29.1308 29.7887 29.1393 29.8921 29.108 29.9892C29.0768 30.0863 29.0096 30.1655 28.9188 30.2121C28.75 30.2987 28.5466 30.2501 28.4352 30.0964L26.9193 28.0047C26.9765 27.9737 27.0328 27.9408 27.0895 27.9086ZM5.10055 27.3899C5.41386 27.6159 5.74141 27.8212 6.08101 28.0043L4.56475 30.0964C4.45338 30.2501 4.25003 30.2988 4.0811 30.2121C3.99035 30.1655 3.92319 30.0863 3.89193 29.9892C3.86067 29.8921 3.86911 29.7887 3.91571 29.6979L5.10055 27.3899ZM27.1938 21.7041H20.8956V16.3511H27.1938V21.7041ZM32.0331 17.8972C32.0331 17.998 31.9512 18.08 31.8504 18.08H28.1606V17.0174H31.8504C31.9512 17.0174 32.0331 17.0994 32.0331 17.2002V17.8972Z" fill="black"/>
</svg>
