<svg width="187" height="49" viewBox="0 0 187 49" fill="none" xmlns="http://www.w3.org/2000/svg">
<path d="M53.3275 40.385C51.562 40.385 50.0655 39.9394 48.8381 39.0483C47.6107 38.1571 46.7279 36.8792 46.1899 35.2146L49.5695 33.9283C49.9394 35.0045 50.4271 35.7947 51.0324 36.2991C51.6545 36.8036 52.4195 37.0558 53.3275 37.0558C54.4204 37.0558 55.2947 36.7027 55.9505 35.9965C56.6231 35.2903 56.9593 34.3487 56.9593 33.1717V22.4779H60.6164V33.2726C60.6164 34.7018 60.3138 35.9544 59.7085 37.0306C59.1032 38.0898 58.254 38.9137 57.1611 39.5022C56.0682 40.0907 54.7903 40.385 53.3275 40.385ZM72.1583 40.4102C70.8468 40.4102 69.6278 40.1832 68.5012 39.7292C67.3747 39.2584 66.3826 38.6111 65.5251 37.7872C64.6844 36.9465 64.0202 35.9797 63.5326 34.8868C63.0618 33.777 62.8264 32.5832 62.8264 31.3053C62.8264 30.0275 63.0618 28.8421 63.5326 27.7491C64.0202 26.6394 64.6844 25.6726 65.5251 24.8487C66.3826 24.008 67.3747 23.3606 68.5012 22.9067C69.6278 22.4359 70.8468 22.2005 72.1583 22.2005C73.4698 22.2005 74.6888 22.4359 75.8154 22.9067C76.9587 23.3606 77.9508 24.008 78.7915 24.8487C79.649 25.6726 80.3132 26.6394 80.784 27.7491C81.2547 28.8421 81.4901 30.0275 81.4901 31.3053C81.4901 32.5832 81.2547 33.777 80.784 34.8868C80.3132 35.9797 79.649 36.9465 78.7915 37.7872C77.9508 38.6111 76.9587 39.2584 75.8154 39.7292C74.6888 40.1832 73.4698 40.4102 72.1583 40.4102ZM72.1583 37.0558C72.9654 37.0558 73.7052 36.9129 74.3778 36.627C75.0503 36.3244 75.6388 35.9208 76.1432 35.4164C76.6477 34.8952 77.0428 34.2814 77.3286 33.5752C77.6145 32.8691 77.7574 32.1124 77.7574 31.3053C77.7574 30.4814 77.6145 29.7248 77.3286 29.0354C77.0428 28.3292 76.6477 27.7239 76.1432 27.2195C75.6388 26.6983 75.0503 26.2947 74.3778 26.0089C73.7052 25.7062 72.9654 25.5549 72.1583 25.5549C71.368 25.5549 70.6366 25.7062 69.964 26.0089C69.2915 26.2947 68.703 26.6983 68.1986 27.2195C67.6941 27.7239 67.299 28.3292 67.0132 29.0354C66.7273 29.7248 66.5844 30.473 66.5844 31.2801C66.5844 32.104 66.7273 32.8691 67.0132 33.5752C67.299 34.2814 67.6941 34.8952 68.1986 35.4164C68.703 35.9208 69.2915 36.3244 69.964 36.627C70.6366 36.9129 71.368 37.0558 72.1583 37.0558ZM91.5654 40.385C89.9681 40.385 88.5809 40.0655 87.4039 39.4266C86.2438 38.7876 85.3442 37.8797 84.7053 36.7027C84.0663 35.5089 83.7469 34.1133 83.7469 32.516V22.4779H87.4039V32.516C87.4039 33.4239 87.5721 34.2226 87.9084 34.912C88.2615 35.5845 88.7491 36.1058 89.3712 36.4757C90.0101 36.8288 90.7499 37.0053 91.5907 37.0053C92.4314 37.0053 93.1628 36.8288 93.7849 36.4757C94.407 36.1058 94.8862 35.5845 95.2225 34.912C95.5756 34.2226 95.7522 33.4239 95.7522 32.516V22.4779H99.384V32.516C99.384 34.0965 99.0645 35.4837 98.4256 36.6775C97.7867 37.8544 96.8787 38.7708 95.7017 39.4266C94.5415 40.0655 93.1628 40.385 91.5654 40.385ZM102.3 40.1328V22.4779H110.925C112.119 22.4779 113.17 22.7133 114.078 23.1841C115.003 23.6381 115.718 24.277 116.222 25.1009C116.743 25.9248 117.004 26.8748 117.004 27.9509C117.004 29.0775 116.693 30.0695 116.071 30.927C115.448 31.7845 114.616 32.4235 113.574 32.8438L117.483 40.1328H113.397L109.942 33.3735H105.957V40.1328H102.3ZM105.957 30.3722H110.598C111.422 30.3722 112.077 30.1536 112.565 29.7164C113.069 29.2792 113.322 28.7076 113.322 28.0014C113.322 27.2952 113.069 26.7235 112.565 26.2863C112.077 25.8491 111.422 25.6306 110.598 25.6306H105.957V30.3722ZM119.418 40.1328V22.4779H122.898L131.675 33.8779V22.4779H135.105V40.1328H131.877L122.873 28.3292V40.1328H119.418ZM138.309 40.1328V22.4779H151.878V25.6558H141.966V29.6912H148.498V32.7682H141.966V36.9549H151.979V40.1328H138.309ZM160.038 40.1328V33.3735L152.825 22.4779H157.037L161.98 30.1452L166.949 22.4779H170.933L163.695 33.3987V40.1328H160.038ZM178.333 40.385C176.904 40.385 175.508 40.1244 174.146 39.6031C172.784 39.0651 171.574 38.3084 170.514 37.3332L172.608 34.7102C173.633 35.6182 174.617 36.2739 175.559 36.6775C176.517 37.081 177.526 37.2828 178.585 37.2828C179.325 37.2828 179.964 37.1987 180.502 37.0306C181.04 36.8456 181.452 36.585 181.738 36.2487C182.04 35.9124 182.192 35.5173 182.192 35.0633C182.192 34.458 181.973 33.9956 181.536 33.6761C181.099 33.3398 180.351 33.0792 179.291 32.8943L175.786 32.289C174.289 32.0368 173.146 31.5071 172.356 30.7C171.582 29.8929 171.195 28.8505 171.195 27.5726C171.195 26.4797 171.473 25.5297 172.028 24.7226C172.599 23.9155 173.398 23.3018 174.424 22.8814C175.466 22.4443 176.702 22.2257 178.131 22.2257C179.426 22.2257 180.712 22.4443 181.99 22.8814C183.285 23.3186 184.428 23.9239 185.42 24.6974L183.453 27.4213C181.603 26.0089 179.745 25.3027 177.879 25.3027C177.223 25.3027 176.652 25.3868 176.164 25.5549C175.676 25.723 175.298 25.9584 175.029 26.2611C174.777 26.5469 174.651 26.8916 174.651 27.2952C174.651 27.8332 174.844 28.2536 175.231 28.5562C175.617 28.8421 176.265 29.0606 177.173 29.212L180.502 29.7668C182.267 30.0527 183.587 30.616 184.462 31.4567C185.336 32.2806 185.773 33.3735 185.773 34.7354C185.773 35.8788 185.471 36.8792 184.865 37.7367C184.26 38.5775 183.394 39.2332 182.267 39.704C181.158 40.158 179.846 40.385 178.333 40.385Z" fill="#190D1F"/>
<path d="M50.3009 17V6.39027H46.047V5.23009H55.8496V6.39027H51.5956V17H50.3009ZM62.0945 17.185C61.2426 17.185 60.4467 17.0336 59.7069 16.731C58.9783 16.4171 58.3337 15.9855 57.7733 15.4363C57.224 14.8758 56.7924 14.2313 56.4786 13.5027C56.1759 12.7628 56.0246 11.967 56.0246 11.115C56.0246 10.2631 56.1759 9.47286 56.4786 8.74425C56.7924 8.00443 57.224 7.35988 57.7733 6.81062C58.3337 6.25015 58.9783 5.81859 59.7069 5.51593C60.4467 5.20207 61.2426 5.04514 62.0945 5.04514C62.9352 5.04514 63.7199 5.20207 64.4485 5.51593C65.1883 5.81859 65.8328 6.25015 66.3821 6.81062C66.9426 7.35988 67.3741 8.00443 67.6768 8.74425C67.9907 9.47286 68.1476 10.2631 68.1476 11.115C68.1476 11.967 67.9907 12.7628 67.6768 13.5027C67.3741 14.2313 66.9426 14.8758 66.3821 15.4363C65.8328 15.9855 65.1883 16.4171 64.4485 16.731C63.7199 17.0336 62.9352 17.185 62.0945 17.185ZM62.0945 15.9912C62.7671 15.9912 63.3892 15.8678 63.9609 15.6212C64.5326 15.3746 65.0314 15.0327 65.4573 14.5956C65.8945 14.1472 66.2308 13.626 66.4662 13.0319C66.7128 12.4378 66.8361 11.7988 66.8361 11.115C66.8361 10.4201 66.7128 9.78112 66.4662 9.19823C66.2308 8.60413 65.8945 8.0885 65.4573 7.65133C65.0314 7.20295 64.5326 6.85546 63.9609 6.60885C63.3892 6.36224 62.7671 6.23894 62.0945 6.23894C61.4219 6.23894 60.7942 6.36224 60.2113 6.60885C59.6396 6.85546 59.1352 7.20295 58.698 7.65133C58.2721 8.0885 57.9358 8.60413 57.6892 9.19823C57.4538 9.78112 57.3361 10.4145 57.3361 11.0982C57.3361 11.7932 57.4538 12.4378 57.6892 13.0319C57.9358 13.626 58.2721 14.1472 58.698 14.5956C59.1352 15.0327 59.6396 15.3746 60.2113 15.6212C60.7942 15.8678 61.4219 15.9912 62.0945 15.9912ZM74.7992 17.185C73.8015 17.185 72.9384 16.9776 72.2098 16.5628C71.4812 16.1369 70.9207 15.5372 70.5284 14.7637C70.136 13.9903 69.9399 13.0767 69.9399 12.023V5.23009H71.2346V12.023C71.2346 12.8301 71.3803 13.5307 71.6717 14.1248C71.9632 14.7189 72.3779 15.1785 72.916 15.5035C73.454 15.8286 74.0818 15.9912 74.7992 15.9912C75.5278 15.9912 76.1555 15.8286 76.6824 15.5035C77.2204 15.1785 77.6352 14.7189 77.9266 14.1248C78.218 13.5307 78.3638 12.8301 78.3638 12.023V5.23009H79.6585V12.023C79.6585 13.0767 79.4567 13.9903 79.0531 14.7637C78.6608 15.5372 78.1003 16.1369 77.3717 16.5628C76.6543 16.9776 75.7968 17.185 74.7992 17.185ZM82.0141 17V5.23009H87.0584C87.8318 5.23009 88.5044 5.37021 89.0761 5.65045C89.6478 5.93068 90.0905 6.32301 90.4044 6.82744C90.7295 7.33186 90.892 7.92596 90.892 8.60974C90.892 9.38319 90.6622 10.0501 90.2026 10.6106C89.7543 11.1599 89.149 11.5466 88.3867 11.7708L91.0265 17H89.5973L87.0752 11.9389H83.3088V17H82.0141ZM83.3088 10.846H86.9743C87.7702 10.846 88.4035 10.6442 88.8743 10.2407C89.3563 9.83717 89.5973 9.29351 89.5973 8.60974C89.5973 7.93717 89.3563 7.39912 88.8743 6.99558C88.4035 6.59204 87.7702 6.39027 86.9743 6.39027H83.3088V10.846ZM96.6682 17.1681C95.7378 17.1681 94.8467 16.9832 93.9948 16.6133C93.1428 16.2322 92.3918 15.6885 91.7417 14.9823L92.5992 14.0912C93.2045 14.7413 93.849 15.2289 94.5328 15.554C95.2278 15.8791 95.9564 16.0416 96.7187 16.0416C97.3352 16.0416 97.8788 15.9463 98.3496 15.7558C98.8316 15.554 99.2071 15.2794 99.4762 14.9319C99.7452 14.5732 99.8797 14.1696 99.8797 13.7212C99.8797 13.1159 99.6667 12.6507 99.2408 12.3257C98.826 12.0006 98.1366 11.7596 97.1726 11.6027L95.4744 11.3336C94.3423 11.1431 93.5071 10.8068 92.9691 10.3248C92.431 9.84277 92.162 9.18702 92.162 8.35753C92.162 7.70738 92.3358 7.1357 92.6833 6.64248C93.0307 6.14927 93.5128 5.76814 94.1293 5.49912C94.757 5.21888 95.48 5.07876 96.2983 5.07876C97.1278 5.07876 97.9405 5.21328 98.7363 5.4823C99.5434 5.75133 100.278 6.13806 100.939 6.64248L100.199 7.65133C98.9101 6.67611 97.593 6.1885 96.2479 6.1885C95.6874 6.1885 95.1942 6.27817 94.7682 6.45753C94.3423 6.62567 94.0116 6.86667 93.7762 7.18053C93.5408 7.48319 93.4231 7.84189 93.4231 8.25664C93.4231 8.8059 93.608 9.22626 93.9779 9.5177C94.3479 9.80915 94.9588 10.0221 95.8107 10.1566L97.4921 10.4257C98.7812 10.6386 99.7172 11.003 100.3 11.5186C100.883 12.023 101.174 12.7348 101.174 13.654C101.174 14.3378 100.984 14.9487 100.603 15.4867C100.222 16.0136 99.6892 16.4283 99.0054 16.731C98.3328 17.0224 97.5538 17.1681 96.6682 17.1681Z" fill="#190D1F"/>
<path d="M18.5191 36.1137C26.9119 36.5649 25.8516 36.2491 27.4083 39.9943C31.9431 35.6625 30.409 36.0235 36.9743 36.0235C41.9604 36.0235 49.3154 31.9399 48.0068 24.7879C39.1853 29.6386 27.9272 34.196 18.5191 36.1137Z" fill="#645CBB"/>
<path d="M36.6134 17.117C36.9518 16.4402 38.4859 15.5378 38.4859 15.5378C36.8164 5.52051 17.7521 5.56563 14.6837 15.5603C9.11105 16.192 8.3214 21.0202 12.0215 23.2763C18.9027 27.4953 38.9372 22.0805 46.2019 19.7116C45.2544 17.0268 39.9524 14.8835 36.6134 17.117Z" fill="#645CBB"/>
<path fill-rule="evenodd" clip-rule="evenodd" d="M2.70361 22.8928C-3.7715 29.6161 2.47799 34.8277 9.9458 35.3918C24.7009 36.5424 44.5098 26.1867 55.7679 19.3281C43.6976 25.6001 26.5284 34.2411 11.841 33.2936C5.88476 32.91 -1.83123 29.977 2.70361 22.8928Z" fill="#645CBB"/>
<path fill-rule="evenodd" clip-rule="evenodd" d="M10.0135 17.2524C8.27629 17.4555 4.03476 20.8171 5.59149 24.1788C11.2093 33.2936 41.0805 24.8105 51.8648 18.5384C42.0958 22.8702 12.2922 31.6015 7.82506 22.419C6.92261 20.5464 7.55433 18.4933 10.0135 17.2524Z" fill="#645CBB"/>
<path d="M41.8701 24.63L42.3439 24.3367L42.0055 24.7653L42.3665 25.2617L41.8927 24.8781L41.3964 25.1714L41.7348 24.7428L41.3738 24.2464L41.8701 24.63Z" fill="#645CBB"/>
<path d="M49.7215 16.8237L50.263 16.4176L49.902 17.0042L50.4209 17.5908L49.7666 17.1621L49.2251 17.6134L49.5635 17.0042L49.0672 16.4176L49.7215 16.8237Z" fill="#645CBB"/>
<path fill-rule="evenodd" clip-rule="evenodd" d="M4.32802 20.9299C-3.86176 32.8874 22.6478 34.3088 39.817 25.1263C23.1442 31.9173 -0.567797 32.3911 4.32802 20.9299Z" fill="#645CBB"/>
<path d="M57.0088 19.4634L57.5503 19.0348L57.2118 19.6439L57.7082 20.2305L57.0539 19.8019L56.535 20.2305L56.8734 19.6439L56.3771 19.0573L57.0088 19.4634Z" fill="#645CBB"/>
<path d="M52.5868 19.4409L53.1508 19.0122L52.7899 19.6214L53.3088 20.2531L52.6319 19.8019L52.0453 20.2531L52.4289 19.6214L51.8874 19.0122L52.5868 19.4409Z" fill="#645CBB"/>
<path d="M59.3349 20C59.126 18.3936 58.9172 16.9076 58.7083 15.3414C58.5691 15.4618 58.4647 15.5823 58.3603 15.6627C57.5597 16.4257 56.7243 17.0683 55.7497 17.51C55.4365 17.6707 55.1232 17.6305 54.81 17.4297C54.2182 16.988 53.5917 16.5863 53 16.1446C53.2088 15.7831 53.4873 15.7028 53.8354 15.743C54.3227 15.8233 54.81 15.8233 55.2973 15.8233C55.4365 15.8233 55.6105 15.7831 55.7497 15.6627C57.4553 14.0161 59.126 12.3293 60.7967 10.6827C61.2492 10.241 61.8061 10 62.3979 10C62.92 10 63.1288 10.4016 62.92 10.9639C62.8156 11.245 62.6067 11.5261 62.4327 11.7269C61.9454 12.249 61.4233 12.7309 60.9012 13.253C60.7619 13.3735 60.6923 13.5341 60.6575 13.7751C60.5531 15.4217 60.4139 17.0683 60.3095 18.7149C60.2746 19.0763 60.1702 19.3574 59.9266 19.5582C59.7177 19.6386 59.5785 19.7992 59.3349 20Z" fill="#645CBB"/>
<path d="M54.7055 13.0522C55.0884 12.6506 55.3669 12.1687 55.9934 12.249C56.6199 12.3695 57.2813 12.3695 57.9426 12.4096C58.0122 12.4096 58.047 12.4096 58.1514 12.4498C57.6641 12.9317 57.2464 13.3333 56.794 13.7751C56.7591 13.8153 56.6547 13.8554 56.6199 13.8153C56.0282 13.6145 55.4365 13.3735 54.8448 13.1727C54.7752 13.1727 54.7751 13.1325 54.7055 13.0522Z" fill="#645CBB"/>
</svg>
