<svg width="187" height="49" viewBox="0 0 187 49" fill="none" xmlns="http://www.w3.org/2000/svg">
<path d="M53.3278 40.385C51.5623 40.385 50.0658 39.9394 48.8384 39.0483C47.6109 38.1571 46.7282 36.8792 46.1901 35.2146L49.5698 33.9283C49.9397 35.0045 50.4273 35.7947 51.0326 36.2991C51.6547 36.8036 52.4198 37.0558 53.3278 37.0558C54.4207 37.0558 55.295 36.7027 55.9508 35.9965C56.6233 35.2903 56.9596 34.3487 56.9596 33.1717V22.4779H60.6167V33.2726C60.6167 34.7018 60.314 35.9544 59.7087 37.0306C59.1034 38.0898 58.2543 38.9137 57.1614 39.5022C56.0685 40.0907 54.7906 40.385 53.3278 40.385ZM72.1586 40.4102C70.847 40.4102 69.628 40.1832 68.5015 39.7292C67.3749 39.2584 66.3829 38.6111 65.5254 37.7872C64.6847 36.9465 64.0205 35.9797 63.5329 34.8868C63.0621 33.777 62.8267 32.5832 62.8267 31.3053C62.8267 30.0275 63.0621 28.8421 63.5329 27.7491C64.0205 26.6394 64.6847 25.6726 65.5254 24.8487C66.3829 24.008 67.3749 23.3606 68.5015 22.9067C69.628 22.4359 70.847 22.2005 72.1586 22.2005C73.4701 22.2005 74.6891 22.4359 75.8156 22.9067C76.959 23.3606 77.951 24.008 78.7917 24.8487C79.6493 25.6726 80.3134 26.6394 80.7842 27.7491C81.255 28.8421 81.4904 30.0275 81.4904 31.3053C81.4904 32.5832 81.255 33.777 80.7842 34.8868C80.3134 35.9797 79.6493 36.9465 78.7917 37.7872C77.951 38.6111 76.959 39.2584 75.8156 39.7292C74.6891 40.1832 73.4701 40.4102 72.1586 40.4102ZM72.1586 37.0558C72.9656 37.0558 73.7055 36.9129 74.378 36.627C75.0506 36.3244 75.6391 35.9208 76.1435 35.4164C76.6479 34.8952 77.0431 34.2814 77.3289 33.5752C77.6147 32.8691 77.7577 32.1124 77.7577 31.3053C77.7577 30.4814 77.6147 29.7248 77.3289 29.0354C77.0431 28.3292 76.6479 27.7239 76.1435 27.2195C75.6391 26.6983 75.0506 26.2947 74.378 26.0089C73.7055 25.7062 72.9656 25.5549 72.1586 25.5549C71.3683 25.5549 70.6369 25.7062 69.9643 26.0089C69.2917 26.2947 68.7032 26.6983 68.1988 27.2195C67.6944 27.7239 67.2993 28.3292 67.0134 29.0354C66.7276 29.7248 66.5847 30.473 66.5847 31.2801C66.5847 32.104 66.7276 32.8691 67.0134 33.5752C67.2993 34.2814 67.6944 34.8952 68.1988 35.4164C68.7032 35.9208 69.2917 36.3244 69.9643 36.627C70.6369 36.9129 71.3683 37.0558 72.1586 37.0558ZM91.5657 40.385C89.9683 40.385 88.5812 40.0655 87.4042 39.4266C86.244 38.7876 85.3445 37.8797 84.7055 36.7027C84.0666 35.5089 83.7471 34.1133 83.7471 32.516V22.4779H87.4042V32.516C87.4042 33.4239 87.5723 34.2226 87.9086 34.912C88.2617 35.5845 88.7493 36.1058 89.3714 36.4757C90.0104 36.8288 90.7502 37.0053 91.5909 37.0053C92.4316 37.0053 93.163 36.8288 93.7852 36.4757C94.4073 36.1058 94.8865 35.5845 95.2228 34.912C95.5759 34.2226 95.7524 33.4239 95.7524 32.516V22.4779H99.3843V32.516C99.3843 34.0965 99.0648 35.4837 98.4259 36.6775C97.7869 37.8544 96.879 38.7708 95.702 39.4266C94.5418 40.0655 93.163 40.385 91.5657 40.385ZM102.3 40.1328V22.4779H110.926C112.12 22.4779 113.17 22.7133 114.078 23.1841C115.003 23.6381 115.718 24.277 116.222 25.1009C116.743 25.9248 117.004 26.8748 117.004 27.9509C117.004 29.0775 116.693 30.0695 116.071 30.927C115.449 31.7845 114.616 32.4235 113.574 32.8438L117.483 40.1328H113.397L109.942 33.3735H105.957V40.1328H102.3ZM105.957 30.3722H110.598C111.422 30.3722 112.078 30.1536 112.565 29.7164C113.07 29.2792 113.322 28.7076 113.322 28.0014C113.322 27.2952 113.07 26.7235 112.565 26.2863C112.078 25.8491 111.422 25.6306 110.598 25.6306H105.957V30.3722ZM119.418 40.1328V22.4779H122.899L131.676 33.8779V22.4779H135.106V40.1328H131.877L122.873 28.3292V40.1328H119.418ZM138.309 40.1328V22.4779H151.878V25.6558H141.966V29.6912H148.499V32.7682H141.966V36.9549H151.979V40.1328H138.309ZM160.038 40.1328V33.3735L152.825 22.4779H157.037L161.98 30.1452L166.949 22.4779H170.934L163.695 33.3987V40.1328H160.038ZM178.333 40.385C176.904 40.385 175.508 40.1244 174.146 39.6031C172.785 39.0651 171.574 38.3084 170.515 37.3332L172.608 34.7102C173.634 35.6182 174.617 36.2739 175.559 36.6775C176.517 37.081 177.526 37.2828 178.585 37.2828C179.325 37.2828 179.964 37.1987 180.502 37.0306C181.04 36.8456 181.452 36.585 181.738 36.2487C182.041 35.9124 182.192 35.5173 182.192 35.0633C182.192 34.458 181.973 33.9956 181.536 33.6761C181.099 33.3398 180.351 33.0792 179.292 32.8943L175.786 32.289C174.289 32.0368 173.146 31.5071 172.356 30.7C171.582 29.8929 171.196 28.8505 171.196 27.5726C171.196 26.4797 171.473 25.5297 172.028 24.7226C172.6 23.9155 173.398 23.3018 174.424 22.8814C175.466 22.4443 176.702 22.2257 178.131 22.2257C179.426 22.2257 180.712 22.4443 181.99 22.8814C183.285 23.3186 184.428 23.9239 185.42 24.6974L183.453 27.4213C181.604 26.0089 179.746 25.3027 177.879 25.3027C177.223 25.3027 176.652 25.3868 176.164 25.5549C175.677 25.723 175.298 25.9584 175.029 26.2611C174.777 26.5469 174.651 26.8916 174.651 27.2952C174.651 27.8332 174.844 28.2536 175.231 28.5562C175.618 28.8421 176.265 29.0606 177.173 29.212L180.502 29.7668C182.268 30.0527 183.588 30.616 184.462 31.4567C185.336 32.2806 185.773 33.3735 185.773 34.7354C185.773 35.8788 185.471 36.8792 184.866 37.7367C184.26 38.5775 183.394 39.2332 182.268 39.704C181.158 40.158 179.846 40.385 178.333 40.385Z" fill="white"/>
<path d="M50.3012 17V6.39027H46.0472V5.23009H55.8499V6.39027H51.5959V17H50.3012ZM62.0948 17.185C61.2428 17.185 60.447 17.0336 59.7071 16.731C58.9785 16.4171 58.334 15.9855 57.7735 15.4363C57.2243 14.8758 56.7927 14.2313 56.4788 13.5027C56.1762 12.7628 56.0248 11.967 56.0248 11.115C56.0248 10.2631 56.1762 9.47286 56.4788 8.74425C56.7927 8.00443 57.2243 7.35988 57.7735 6.81062C58.334 6.25015 58.9785 5.81859 59.7071 5.51593C60.447 5.20207 61.2428 5.04514 62.0948 5.04514C62.9355 5.04514 63.7201 5.20207 64.4487 5.51593C65.1886 5.81859 65.8331 6.25015 66.3824 6.81062C66.9428 7.35988 67.3744 8.00443 67.6771 8.74425C67.9909 9.47286 68.1479 10.2631 68.1479 11.115C68.1479 11.967 67.9909 12.7628 67.6771 13.5027C67.3744 14.2313 66.9428 14.8758 66.3824 15.4363C65.8331 15.9855 65.1886 16.4171 64.4487 16.731C63.7201 17.0336 62.9355 17.185 62.0948 17.185ZM62.0948 15.9912C62.7673 15.9912 63.3894 15.8678 63.9611 15.6212C64.5328 15.3746 65.0316 15.0327 65.4576 14.5956C65.8948 14.1472 66.231 13.626 66.4664 13.0319C66.713 12.4378 66.8363 11.7988 66.8363 11.115C66.8363 10.4201 66.713 9.78112 66.4664 9.19823C66.231 8.60413 65.8948 8.0885 65.4576 7.65133C65.0316 7.20295 64.5328 6.85546 63.9611 6.60885C63.3894 6.36224 62.7673 6.23894 62.0948 6.23894C61.4222 6.23894 60.7945 6.36224 60.2116 6.60885C59.6399 6.85546 59.1355 7.20295 58.6983 7.65133C58.2723 8.0885 57.9361 8.60413 57.6894 9.19823C57.4541 9.78112 57.3364 10.4145 57.3364 11.0982C57.3364 11.7932 57.4541 12.4378 57.6894 13.0319C57.9361 13.626 58.2723 14.1472 58.6983 14.5956C59.1355 15.0327 59.6399 15.3746 60.2116 15.6212C60.7945 15.8678 61.4222 15.9912 62.0948 15.9912ZM74.7994 17.185C73.8018 17.185 72.9387 16.9776 72.21 16.5628C71.4814 16.1369 70.921 15.5372 70.5286 14.7637C70.1363 13.9903 69.9401 13.0767 69.9401 12.023V5.23009H71.2348V12.023C71.2348 12.8301 71.3805 13.5307 71.672 14.1248C71.9634 14.7189 72.3782 15.1785 72.9162 15.5035C73.4543 15.8286 74.082 15.9912 74.7994 15.9912C75.528 15.9912 76.1558 15.8286 76.6826 15.5035C77.2207 15.1785 77.6354 14.7189 77.9269 14.1248C78.2183 13.5307 78.364 12.8301 78.364 12.023V5.23009H79.6587V12.023C79.6587 13.0767 79.4569 13.9903 79.0534 14.7637C78.6611 15.5372 78.1006 16.1369 77.372 16.5628C76.6546 16.9776 75.7971 17.185 74.7994 17.185ZM82.0144 17V5.23009H87.0587C87.8321 5.23009 88.5047 5.37021 89.0763 5.65045C89.648 5.93068 90.0908 6.32301 90.4047 6.82744C90.7297 7.33186 90.8923 7.92596 90.8923 8.60974C90.8923 9.38319 90.6625 10.0501 90.2029 10.6106C89.7545 11.1599 89.1492 11.5466 88.387 11.7708L91.0268 17H89.5976L87.0755 11.9389H83.3091V17H82.0144ZM83.3091 10.846H86.9746C87.7705 10.846 88.4038 10.6442 88.8746 10.2407C89.3566 9.83717 89.5976 9.29351 89.5976 8.60974C89.5976 7.93717 89.3566 7.39912 88.8746 6.99558C88.4038 6.59204 87.7705 6.39027 86.9746 6.39027H83.3091V10.846ZM96.6685 17.1681C95.7381 17.1681 94.8469 16.9832 93.995 16.6133C93.1431 16.2322 92.3921 15.6885 91.7419 14.9823L92.5994 14.0912C93.2048 14.7413 93.8493 15.2289 94.5331 15.554C95.2281 15.8791 95.9567 16.0416 96.7189 16.0416C97.3354 16.0416 97.8791 15.9463 98.3499 15.7558C98.8319 15.554 99.2074 15.2794 99.4764 14.9319C99.7455 14.5732 99.88 14.1696 99.88 13.7212C99.88 13.1159 99.667 12.6507 99.241 12.3257C98.8263 12.0006 98.1369 11.7596 97.1729 11.6027L95.4747 11.3336C94.3425 11.1431 93.5074 10.8068 92.9694 10.3248C92.4313 9.84277 92.1623 9.18702 92.1623 8.35753C92.1623 7.70738 92.336 7.1357 92.6835 6.64248C93.031 6.14927 93.513 5.76814 94.1295 5.49912C94.7573 5.21888 95.4803 5.07876 96.2986 5.07876C97.1281 5.07876 97.9407 5.21328 98.7366 5.4823C99.5437 5.75133 100.278 6.13806 100.939 6.64248L100.199 7.65133C98.9104 6.67611 97.5932 6.1885 96.2481 6.1885C95.6876 6.1885 95.1944 6.27817 94.7685 6.45753C94.3425 6.62567 94.0118 6.86667 93.7764 7.18053C93.541 7.48319 93.4233 7.84189 93.4233 8.25664C93.4233 8.8059 93.6083 9.22626 93.9782 9.5177C94.3481 9.80915 94.959 10.0221 95.8109 10.1566L97.4924 10.4257C98.7814 10.6386 99.7174 11.003 100.3 11.5186C100.883 12.023 101.175 12.7348 101.175 13.654C101.175 14.3378 100.984 14.9487 100.603 15.4867C100.222 16.0136 99.6894 16.4283 99.0056 16.731C98.3331 17.0224 97.554 17.1681 96.6685 17.1681Z" fill="white"/>
<path d="M18.5194 36.1137C26.9122 36.5649 25.8518 36.2491 27.4086 39.9943C31.9434 35.6625 30.4092 36.0235 36.9746 36.0235C41.9606 36.0235 49.3156 31.9399 48.0071 24.7879C39.1856 29.6386 27.9275 34.196 18.5194 36.1137Z" fill="white"/>
<path d="M36.6136 17.117C36.952 16.4402 38.4862 15.5378 38.4862 15.5378C36.8167 5.52051 17.7523 5.56563 14.684 15.5603C9.11131 16.192 8.32166 21.0202 12.0217 23.2763C18.9029 27.4953 38.9374 22.0805 46.2022 19.7116C45.2546 17.0268 39.9527 14.8835 36.6136 17.117Z" fill="white"/>
<path fill-rule="evenodd" clip-rule="evenodd" d="M2.70387 22.8928C-3.77124 29.6161 2.47825 34.8277 9.94606 35.3918C24.7012 36.5424 44.5101 26.1867 55.7682 19.3281C43.6979 25.6001 26.5287 34.2411 11.8412 33.2936C5.88502 32.91 -1.83097 29.977 2.70387 22.8928Z" fill="white"/>
<path fill-rule="evenodd" clip-rule="evenodd" d="M10.0138 17.2524C8.27655 17.4555 4.03501 20.8171 5.59175 24.1788C11.2095 33.2936 41.0808 24.8105 51.8651 18.5384C42.096 22.8702 12.2925 31.6015 7.82532 22.419C6.92287 20.5464 7.55459 18.4933 10.0138 17.2524Z" fill="white"/>
<path d="M41.8704 24.63L42.3442 24.3367L42.0058 24.7653L42.3668 25.2617L41.893 24.8781L41.3966 25.1714L41.735 24.7428L41.3741 24.2464L41.8704 24.63Z" fill="white"/>
<path d="M49.7218 16.8237L50.2632 16.4176L49.9022 17.0042L50.4212 17.5908L49.7669 17.1621L49.2254 17.6134L49.5638 17.0042L49.0675 16.4176L49.7218 16.8237Z" fill="white"/>
<path fill-rule="evenodd" clip-rule="evenodd" d="M4.32828 20.9299C-3.8615 32.8874 22.6481 34.3088 39.8173 25.1263C23.1445 31.9173 -0.567538 32.3911 4.32828 20.9299Z" fill="white"/>
<path d="M57.0091 19.4634L57.5505 19.0348L57.2121 19.6439L57.7085 20.2305L57.0542 19.8019L56.5353 20.2305L56.8737 19.6439L56.3773 19.0573L57.0091 19.4634Z" fill="white"/>
<path d="M52.5871 19.4409L53.1511 19.0122L52.7901 19.6214L53.309 20.2531L52.6322 19.8019L52.0456 20.2531L52.4291 19.6214L51.8877 19.0122L52.5871 19.4409Z" fill="white"/>
<path d="M59.3351 20C59.1263 18.3936 58.9174 16.9076 58.7086 15.3414C58.5694 15.4618 58.4649 15.5823 58.3605 15.6627C57.56 16.4257 56.7246 17.0683 55.75 17.51C55.4367 17.6707 55.1235 17.6305 54.8102 17.4297C54.2185 16.988 53.592 16.5863 53.0003 16.1446C53.2091 15.7831 53.4876 15.7028 53.8356 15.743C54.3229 15.8233 54.8102 15.8233 55.2975 15.8233C55.4367 15.8233 55.6108 15.7831 55.75 15.6627C57.4555 14.0161 59.1263 12.3293 60.797 10.6827C61.2495 10.241 61.8064 10 62.3981 10C62.9202 10 63.1291 10.4016 62.9202 10.9639C62.8158 11.245 62.607 11.5261 62.4329 11.7269C61.9456 12.249 61.4235 12.7309 60.9014 13.253C60.7622 13.3735 60.6926 13.5341 60.6578 13.7751C60.5534 15.4217 60.4141 17.0683 60.3097 18.7149C60.2749 19.0763 60.1705 19.3574 59.9268 19.5582C59.718 19.6386 59.5788 19.7992 59.3351 20Z" fill="white"/>
<path d="M54.7058 13.0522C55.0887 12.6506 55.3671 12.1687 55.9937 12.249C56.6202 12.3695 57.2815 12.3695 57.9428 12.4096C58.0125 12.4096 58.0473 12.4096 58.1517 12.4498C57.6644 12.9317 57.2467 13.3333 56.7942 13.7751C56.7594 13.8153 56.655 13.8554 56.6202 13.8153C56.0285 13.6145 55.4367 13.3735 54.845 13.1727C54.7754 13.1727 54.7754 13.1325 54.7058 13.0522Z" fill="white"/>
</svg>
